<svg width="1081" height="1081" viewBox="0 0 1081 1081" fill="none" xmlns="http://www.w3.org/2000/svg">
<path d="M861.567 391.309C950.865 377.11 1015.95 428.618 1024.89 590.087C1031.54 710.263 968.876 828.871 868.739 884.317C735.684 957.979 537.329 935.084 471.995 815.383C433.01 743.96 438.36 632.515 492.591 587.743C546.956 542.864 607.609 619.436 706.694 576.806C816.86 529.409 789.543 402.762 861.567 391.309Z" fill="white"/>
<path d="M534.016 574.379C519.761 574.379 506.324 578.016 493.379 588.7C468.328 609.38 451.997 646.91 448.572 691.666C445.236 735.264 454.168 780.142 473.085 814.791C498.197 860.806 543.786 894.514 604.927 912.283C690.176 937.054 791.035 925.916 868.131 883.231C967.798 828.049 1030.29 710.275 1023.65 590.161C1018.84 503.411 997.433 444.119 960.004 413.922C934.58 393.405 901.524 386.21 861.762 392.534C829.144 397.719 817.08 427.66 803.107 462.34C786.121 504.493 766.869 552.266 707.176 577.949C655.576 600.151 614.937 590.401 579.087 581.799C563.073 577.954 548.146 574.379 534.016 574.379ZM699.155 927.757C666.712 927.757 634.503 923.454 604.233 914.662C542.449 896.708 496.344 862.586 470.908 815.977C451.768 780.92 442.729 735.538 446.098 691.475C449.574 646.054 466.229 607.896 491.8 586.786C518.529 564.724 546.86 571.518 579.665 579.387C615.142 587.9 655.357 597.548 706.203 575.671C764.946 550.392 784.001 503.126 800.803 461.412C815.061 426.037 827.375 395.488 861.367 390.085C901.86 383.643 935.568 391.014 961.561 411.991C999.553 442.642 1021.28 502.548 1026.12 590.021C1032.82 711.064 969.816 829.773 869.337 885.403C819.054 913.241 758.731 927.752 699.155 927.757Z" fill="black"/>
<path d="M859.738 734.44C859.244 734.44 858.78 734.143 858.58 733.656C845.675 701.296 802.26 694.972 801.821 694.911C801.146 694.821 800.67 694.194 800.764 693.517C800.851 692.84 801.477 692.364 802.159 692.454C802.61 692.516 847.44 699.024 860.883 732.738C861.14 733.376 860.827 734.098 860.195 734.35C860.045 734.412 859.888 734.44 859.738 734.44Z" fill="black"/>
<path d="M798.707 755.154C798.666 755.154 798.618 755.149 798.577 755.143C797.898 755.076 797.402 754.466 797.473 753.783C800.691 722.353 782.945 701.707 782.762 701.5C782.313 700.985 782.366 700.202 782.88 699.748C783.393 699.301 784.179 699.351 784.627 699.866C784.816 700.078 803.265 721.547 799.941 754.041C799.87 754.679 799.333 755.154 798.707 755.154Z" fill="black"/>
<path d="M616.408 873.902C613.604 871.065 597.396 820.64 597.396 820.64L565.361 843.496L600.48 890.692L616.408 873.902Z" fill="white"/>
<path d="M567.114 843.77L600.598 888.772L614.847 873.751C611.164 866.979 600.111 833.092 596.736 822.638L567.114 843.77ZM600.48 891.929C600.458 891.929 600.43 891.929 600.408 891.929C600.044 891.907 599.702 891.727 599.484 891.431L564.371 844.235C564.17 843.966 564.091 843.63 564.142 843.306C564.192 842.976 564.371 842.679 564.645 842.489L596.675 819.632C596.999 819.403 597.408 819.341 597.783 819.464C598.158 819.588 598.454 819.884 598.578 820.259C604.767 839.528 615.328 870.891 617.298 873.035C617.735 873.516 617.757 874.289 617.309 874.759L601.381 891.543C601.146 891.795 600.822 891.929 600.48 891.929Z" fill="black"/>
<path d="M558.684 937.664L579.99 937.535C594.082 937.452 607.189 930.293 614.873 918.479L635.939 885.135C641.759 875.917 638.502 863.705 628.876 858.59C620.084 853.917 610.878 849.367 608.717 849.574C604.335 849.988 602.567 870.723 602.567 870.723L583.589 871.451C583.589 871.451 574.209 910.437 565.965 914.869C559.954 918.099 555.757 922.839 552.936 927.165C549.981 931.698 553.278 937.698 558.684 937.664Z" fill="black"/>
<path d="M560.829 930.585C560.23 930.585 559.699 930.142 559.604 929.532C559.503 928.855 559.967 928.223 560.645 928.122L589.78 923.734C595.976 922.8 601.371 919.184 604.589 913.812L630.333 870.796C630.686 870.209 631.447 870.018 632.035 870.371C632.622 870.723 632.812 871.485 632.46 872.072L606.716 915.082C603.117 921.093 597.078 925.139 590.15 926.186L561.02 930.573C560.952 930.579 560.891 930.585 560.829 930.585Z" fill="white"/>
<path d="M596.797 898.242C596.685 898.242 596.579 898.225 596.467 898.197L580.237 893.776C579.576 893.597 579.185 892.914 579.364 892.254C579.543 891.593 580.226 891.201 580.886 891.38L597.122 895.802C597.782 895.981 598.168 896.664 597.989 897.324C597.838 897.878 597.34 898.242 596.797 898.242Z" fill="white"/>
<path d="M588.341 906.575C588.241 906.575 588.145 906.564 588.045 906.542L577.159 903.878C576.493 903.715 576.09 903.044 576.253 902.378C576.415 901.712 577.092 901.309 577.747 901.471L588.632 904.135C589.298 904.297 589.707 904.969 589.545 905.629C589.405 906.2 588.901 906.575 588.341 906.575Z" fill="white"/>
<path d="M507.113 864.282L469.93 901.65L450.213 894.408L484.492 846.602L507.113 864.282Z" fill="white"/>
<path d="M452.171 893.809L469.61 900.212L505.249 864.399L484.749 848.376L452.171 893.809ZM469.929 902.887C469.784 902.887 469.638 902.865 469.498 902.814L449.787 895.572C449.423 895.438 449.143 895.141 449.026 894.772C448.914 894.403 448.981 894 449.205 893.686L483.484 845.88C483.68 845.606 483.982 845.427 484.318 845.377C484.659 845.332 484.989 845.421 485.258 845.628L507.879 863.308C508.159 863.526 508.333 863.851 508.355 864.209C508.372 864.562 508.243 864.909 507.991 865.161L470.808 902.523C470.567 902.764 470.254 902.887 469.929 902.887Z" fill="black"/>
<path d="M481.676 895.802C481.676 895.802 483.472 911.696 480.422 925.743C478.799 933.232 472.055 938.498 464.394 938.498H373.124C366.6 938.498 363.643 930.355 368.644 926.163C384.872 912.569 414.724 891.806 451.432 885.711L461.668 900.038L481.676 895.802Z" fill="black"/>
<path d="M472.05 927.187H377.464C376.779 927.187 376.225 926.633 376.225 925.945C376.225 925.262 376.779 924.708 377.464 924.708H472.05C472.738 924.708 473.292 925.262 473.292 925.945C473.292 926.633 472.738 927.187 472.05 927.187Z" fill="white"/>
<path d="M430.244 910.386C429.757 910.386 429.293 910.095 429.097 909.62L424.088 897.47C423.83 896.837 424.133 896.115 424.765 895.852C425.392 895.595 426.119 895.891 426.383 896.529L431.391 908.674C431.649 909.306 431.347 910.028 430.714 910.291C430.563 910.353 430.401 910.386 430.244 910.386Z" fill="white"/>
<path d="M413.779 913.576C413.258 913.576 412.777 913.246 412.604 912.726L408.983 901.773C408.764 901.118 409.117 900.419 409.772 900.206C410.415 899.988 411.12 900.341 411.333 900.99L414.96 911.948C415.172 912.597 414.82 913.302 414.171 913.515C414.042 913.56 413.908 913.576 413.779 913.576Z" fill="white"/>
<path d="M703.966 602.815C703.966 602.815 534.004 583.031 483.461 626.78C432.924 670.528 563.246 858.663 563.246 858.663L604.459 828.1L565.361 695.131L722.474 650.509L703.966 602.815Z" fill="black"/>
<path d="M797.498 689.407C772.814 697.242 728.639 707.372 666.898 706.532C649.349 706.292 633.155 715.985 625.183 731.611C606.902 767.479 567.318 832.052 502.841 873.903L472.047 857.315L550.648 680.391C557.82 664.239 571.242 651.686 587.833 645.602L743.6 588.483C743.6 588.483 791.895 574.987 815.578 618.1C819.808 625.797 827.658 612.032 829.532 618.246C835.941 639.547 818.703 682.68 797.498 689.407Z" fill="black"/>
<path d="M515.126 761.579C514.964 761.579 514.791 761.545 514.628 761.473C514.001 761.198 513.722 760.465 513.996 759.839L549.512 679.891C556.782 663.521 570.6 650.599 587.412 644.437L662.003 617.081C662.652 616.846 663.357 617.176 663.598 617.82C663.833 618.463 663.503 619.174 662.859 619.409L588.262 646.765C572.077 652.698 558.78 665.139 551.778 680.893L516.262 760.846C516.055 761.305 515.602 761.579 515.126 761.579Z" fill="white"/>
<path d="M556.597 830.311C556.289 830.311 555.981 830.193 555.74 829.964C555.248 829.488 555.231 828.704 555.701 828.212C562.798 820.83 569.782 812.905 576.459 804.656C576.884 804.124 577.668 804.04 578.199 804.471C578.731 804.902 578.815 805.68 578.384 806.212C571.663 814.523 564.633 822.498 557.492 829.93C557.246 830.182 556.921 830.311 556.597 830.311Z" fill="white"/>
<path d="M577.422 806.676C577.147 806.676 576.873 806.581 576.644 806.396C576.106 805.966 576.028 805.188 576.459 804.656C579.75 800.582 583.024 796.367 586.175 792.136C586.583 791.588 587.356 791.47 587.91 791.885C588.458 792.293 588.57 793.065 588.162 793.614C584.988 797.878 581.703 802.115 578.384 806.212C578.138 806.52 577.78 806.676 577.422 806.676Z" fill="white"/>
<path d="M665.344 465.537C665.344 465.537 650.396 601.276 550.016 610.158L665.344 611.798C665.344 611.798 708.046 525.263 709.781 491.572C711.516 457.881 665.344 465.537 665.344 465.537Z" fill="white"/>
<path d="M564.572 609.123L664.577 610.544C668.634 602.233 706.926 522.969 708.544 491.51C708.941 483.804 706.742 477.754 702.001 473.517C691.385 464.031 671.002 466.046 666.457 466.634C665.702 472.426 661.118 503.476 646.45 535.041C627.5 575.817 599.382 601.164 564.572 609.123ZM665.344 613.035C665.338 613.035 665.332 613.035 665.327 613.035L549.998 611.395C549.338 611.389 548.8 610.863 548.778 610.203C548.756 609.542 549.248 608.983 549.909 608.921C601.173 604.388 629.481 565.671 644.2 533.994C660.212 499.53 664.079 465.738 664.112 465.402C664.174 464.848 664.594 464.406 665.142 464.317C666.183 464.143 690.819 460.214 703.647 471.665C708.98 476.422 711.459 483.144 711.023 491.634C709.294 525.196 668.204 608.804 666.457 612.346C666.25 612.766 665.819 613.035 665.344 613.035Z" fill="black"/>
<path d="M808.215 379.273C788.736 374.695 780.614 374.632 709.83 377.197C692.527 377.824 673.28 404.91 671.248 422.094C676.742 438.588 700.793 514.64 656.492 578.251C650.202 587.281 641.66 597.178 629.92 606.666C636.517 611.997 646.759 618.939 660.512 623.019C683.352 629.802 694.835 622.471 713.241 623.019C761.926 624.474 779.774 678.694 811.219 671.883C819.61 670.064 830.748 663.516 841.177 641.549C847.091 623.332 852.353 601.944 855.288 577.768C863.227 512.238 850.233 457.671 838.618 423.436C835.169 412.624 831.168 384.666 808.215 379.273Z" fill="white"/>
<path d="M711.255 621.753C711.92 621.753 712.597 621.758 713.28 621.78C739.207 622.553 756.376 637.887 771.527 651.415C784.973 663.419 796.583 673.784 810.957 670.673C822.052 668.272 831.831 658.315 840.03 641.089C846.744 620.393 851.464 599.038 854.059 577.618C860.265 526.379 854.68 474.638 837.447 423.832C836.952 422.277 836.47 420.466 835.912 418.359C832.57 405.872 826.979 384.954 807.929 380.478C788.854 375.99 781.519 375.84 709.876 378.435C692.744 379.055 674.584 405.879 672.515 421.97C681.743 449.771 698.492 520.117 657.508 578.96C650.4 589.171 641.787 598.48 631.901 606.654C640.872 613.683 650.613 618.786 660.868 621.831C675.217 626.09 684.827 624.708 695.001 623.241C700.103 622.508 705.35 621.753 711.255 621.753ZM805.722 673.723C792.796 673.723 782.065 664.141 769.879 653.262C755.041 640.014 738.229 625.004 713.205 624.26C706.679 624.064 700.924 624.893 695.364 625.693C685.36 627.131 675.029 628.62 660.166 624.209C649.14 620.935 638.703 615.356 629.149 607.632C628.855 607.4 628.686 607.037 628.686 606.667C628.686 606.297 628.855 605.94 629.149 605.701C639.348 597.446 648.212 587.974 655.477 577.543C695.941 519.434 679.166 449.752 670.071 422.49C670.014 422.321 669.995 422.133 670.014 421.951C672.014 405.095 691.428 376.623 709.788 375.959C781.739 373.351 789.123 373.508 808.499 378.065C828.991 382.879 834.815 404.688 838.306 417.726C838.858 419.795 839.334 421.588 839.804 423.054C857.149 474.2 862.772 526.31 856.523 577.913C853.902 599.514 849.138 621.059 842.362 641.928C842.343 641.985 842.324 642.029 842.299 642.08C833.749 660.084 823.381 670.516 811.483 673.096C809.508 673.521 807.59 673.723 805.722 673.723Z" fill="black"/>
<path d="M652.152 480.748C652.152 480.748 671.265 386.222 704.251 378.387L689.017 501.864L652.152 480.748Z" fill="white"/>
<path d="M689.018 503.101C688.8 503.101 688.587 503.051 688.397 502.939L651.538 481.823C651.073 481.56 650.833 481.028 650.939 480.502C651.728 476.612 670.594 385.108 703.967 377.178C704.638 377.021 705.304 377.435 705.461 378.096C705.618 378.762 705.209 379.433 704.543 379.59C674.361 386.759 655.59 470.59 653.553 480.121L688.011 499.861L690.524 479.539C690.608 478.862 691.234 478.381 691.9 478.465C692.583 478.549 693.064 479.164 692.98 479.847L690.244 502.015C690.193 502.429 689.942 502.788 689.572 502.972C689.393 503.062 689.203 503.101 689.018 503.101Z" fill="black"/>
<path d="M750.137 334.038L747.786 366.73C747.266 370.983 744.201 374.485 740.054 375.566L728.572 378.555L736.02 384.231C752.541 396.812 775.422 399.387 791.96 386.836L803.75 378.272L789.486 374.71C785.387 373.794 782.238 367.953 781.494 363.818L775.192 320.565L750.137 334.038Z" fill="white"/>
<path d="M731.355 379.112L736.773 383.241C754.049 396.395 775.927 397.442 791.216 385.843L800.874 378.823L789.187 375.907C784.325 374.819 781.043 368.307 780.274 364.036L774.217 322.487L751.322 334.807L749.022 366.816C748.43 371.666 745.041 375.546 740.369 376.758L731.355 379.112ZM766.854 396.359C756.125 396.359 745 392.621 735.27 385.216L727.824 379.538C727.445 379.254 727.262 378.775 727.357 378.308C727.451 377.847 727.8 377.474 728.262 377.356L739.742 374.363C743.42 373.405 746.094 370.347 746.555 366.574L748.897 333.949C748.927 333.523 749.175 333.145 749.548 332.944L774.608 319.47C774.957 319.275 775.388 319.269 775.749 319.453C776.11 319.636 776.358 319.979 776.418 320.381L782.722 363.634C783.367 367.23 786.177 372.695 789.755 373.494L804.05 377.06C804.517 377.178 804.878 377.557 804.967 378.03C805.062 378.503 804.872 378.988 804.482 379.266L792.694 387.836C785.177 393.538 776.169 396.359 766.854 396.359Z" fill="black"/>
<path d="M712.988 288.538C720.847 284.378 714.518 297.328 740.37 274.96C750.661 266.05 751.032 282.681 753.715 280.374C763.599 271.871 763.247 272.146 769.492 271.064C773.621 270.347 779.137 276.042 780.78 281.438C782.95 288.556 778.217 292.817 779.83 309.209C780.966 320.725 784.587 326.378 781.27 329.653C777.918 332.958 772.456 328.912 768.524 332.246C763.42 336.567 769.241 346.165 765.476 352.971C763.103 357.262 755.311 362.318 738.924 361.923C736.271 361.858 734.018 359.903 733.588 357.274C733.032 353.904 732.351 349.643 732.04 345.519C730.576 325.864 734.813 319.332 730.642 315.974C724.259 310.822 713.407 320.414 708.799 315.89C704.012 311.199 702.231 294.233 712.988 288.538Z" fill="black"/>
<path d="M752.093 299.557L751.762 304.924C751.611 307.456 751.634 309.988 751.826 312.515C752.192 317.26 752.761 325.42 752.738 330.009C752.697 336.758 731.847 338.07 731.847 338.07L729.204 335.125L726.753 335.23C726.282 335.253 725.8 335.172 725.376 334.951C724.319 334.405 723.802 333.279 723.982 332.187C724.97 326.228 726.695 313.072 724.784 302.85C724.784 302.85 736.377 293.436 752.093 299.557Z" fill="white"/>
<path d="M729.201 333.89C729.55 333.89 729.882 334.041 730.126 334.303L732.365 336.798C740.497 336.199 751.472 333.762 751.501 330.005C751.524 325.433 750.943 317.145 750.594 312.614C750.39 310.043 750.367 307.432 750.524 304.85L750.797 300.4C738.129 295.875 728.544 301.691 726.142 303.39C727.829 313.458 726.293 325.817 725.206 332.389C725.107 332.983 725.409 333.57 725.95 333.855C726.148 333.96 726.404 334.006 726.7 333.995L729.149 333.89C729.166 333.89 729.184 333.89 729.201 333.89ZM731.842 339.311C731.499 339.311 731.161 339.165 730.923 338.904L728.672 336.391L726.805 336.472C726.078 336.502 725.386 336.356 724.804 336.054C723.31 335.274 722.484 333.64 722.763 331.982C723.635 326.69 725.467 313.271 723.565 303.076C723.484 302.634 723.653 302.174 724.002 301.889C724.502 301.488 736.344 292.095 752.542 298.399C753.042 298.597 753.362 299.097 753.327 299.632L752.996 305.001C752.85 307.467 752.868 309.968 753.06 312.422C753.42 316.994 754.008 325.358 753.979 330.016C753.926 337.543 735.599 339.078 731.929 339.311C731.9 339.311 731.871 339.311 731.842 339.311Z" fill="black"/>
<path d="M755.748 316.107C755.748 316.107 756.513 303.197 762.307 304.829C768.095 306.461 766.888 320.648 755.748 316.107Z" fill="white"/>
<path d="M471.132 623.103H699.008C704.459 623.103 708.875 618.687 708.875 613.236V609.805H461.266V613.236C461.266 618.687 465.687 623.103 471.132 623.103Z" fill="white"/>
<path d="M462.509 611.048V613.236C462.509 617.993 466.376 621.86 471.133 621.86H699.009C703.766 621.86 707.633 617.993 707.633 613.236V611.048H462.509ZM699.009 624.34H471.133C465.01 624.34 460.029 619.359 460.029 613.236V609.805C460.029 609.123 460.583 608.568 461.266 608.568H708.876C709.558 608.568 710.112 609.123 710.112 609.805V613.236C710.112 619.359 705.131 624.34 699.009 624.34Z" fill="black"/>
<path d="M461.259 610.046H602.942L557.929 477.541C555.237 473.394 550.541 470.881 545.499 470.881H425.726C420.298 470.881 416.794 476.153 418.568 480.81C419.273 482.662 420.034 484.487 420.65 486.373L461.259 610.046Z" fill="white"/>
<path d="M462.161 608.809H601.213L556.804 478.09C554.314 474.351 550.1 472.118 545.499 472.118H425.727C423.561 472.118 421.63 473.114 420.432 474.855C419.302 476.495 419.039 478.554 419.727 480.368C419.923 480.888 420.13 481.409 420.332 481.935C420.847 483.244 421.378 484.604 421.832 485.987L462.161 608.809ZM602.942 611.288H461.26C460.728 611.288 460.252 610.941 460.084 610.432L419.475 486.759C419.044 485.444 418.524 484.117 418.026 482.836C417.819 482.31 417.612 481.778 417.41 481.252C416.431 478.677 416.795 475.762 418.39 473.445C420.057 471.027 422.733 469.639 425.727 469.639H545.499C550.995 469.639 556.032 472.342 558.97 476.864C559.026 476.954 559.071 477.043 559.104 477.144L604.118 609.649C604.246 610.029 604.185 610.443 603.95 610.768C603.72 611.093 603.345 611.288 602.942 611.288Z" fill="black"/>
<path d="M513.839 538.678C515.529 544.281 512.949 550.011 508.08 551.483C503.205 552.95 497.888 549.603 496.204 544.001C494.514 538.399 497.094 532.662 501.963 531.196C506.837 529.724 512.154 533.071 513.839 538.678Z" fill="black"/>
<path d="M853.687 505.067C853.687 505.067 846.741 593.102 827.071 626.428C803.58 666.236 685.089 612.629 685.089 612.629L671.309 604.82C661.99 599.539 650.875 598.408 640.686 601.701L618.426 608.883C618.426 608.883 636.81 586.846 652.447 578.415C659.772 574.464 669.272 578.198 677.305 583.286C691.11 592.034 707.356 596.134 723.702 595.643L770.832 594.239C778.748 594.009 785.234 587.884 785.923 579.999L793.025 480.986L853.687 505.067Z" fill="white"/>
<path d="M652.426 598.613C659.201 598.613 665.938 600.349 671.922 603.739L685.707 611.546C686.783 612.025 803.347 664.196 826.003 625.798C844.242 594.899 851.57 515.305 852.379 505.881L794.14 482.752L787.161 580.082C786.421 588.616 779.416 595.229 770.875 595.478L723.741 596.878C706.677 597.388 690.41 593.046 676.644 584.324C669.813 580.001 660.171 575.652 653.036 579.503C641.422 585.761 628.072 599.87 622.3 606.333L640.309 600.517C644.252 599.248 648.346 598.613 652.426 598.613ZM791.161 642.431C748.655 642.431 688.096 615.341 684.581 613.748L670.703 605.898C661.714 600.803 650.909 599.708 641.074 602.88L618.81 610.059C618.287 610.227 617.709 610.034 617.404 609.574C617.087 609.12 617.124 608.51 617.479 608.087C618.231 607.179 636.19 585.767 651.86 577.32C658.442 573.774 667.225 575.429 677.969 582.234C691.325 590.682 707.107 594.887 723.666 594.402L770.807 593.002C778.085 592.784 784.057 587.148 784.691 579.889L791.795 480.892C791.82 480.494 792.032 480.14 792.368 479.928C792.703 479.717 793.12 479.679 793.487 479.829L854.152 503.915C854.656 504.108 854.973 504.618 854.929 505.166C854.643 508.767 847.732 593.861 828.143 627.057C821.487 638.334 807.689 642.431 791.161 642.431Z" fill="black"/>
<path d="M864.711 511.288C864.711 511.288 872.132 454.563 863.952 434.586C844.86 387.988 815.678 381.454 811.004 380.068L784.105 495.252L864.711 511.288Z" fill="white"/>
<path d="M864.704 512.534C864.616 512.534 864.54 512.521 864.458 512.508L783.856 496.473C783.533 496.41 783.241 496.213 783.058 495.928C782.874 495.65 782.811 495.301 782.893 494.978L788.384 471.457C788.536 470.792 789.213 470.38 789.872 470.532C790.543 470.691 790.955 471.356 790.797 472.027L785.603 494.294L863.634 509.817C864.673 501.21 870.075 452.838 862.792 435.06C854.533 414.902 838.903 389.24 811.335 381.457L810.645 381.26C809.992 381.064 809.612 380.374 809.809 379.715C810.005 379.063 810.689 378.689 811.354 378.885L812.013 379.069C834.59 385.447 852.944 404.478 865.091 434.117C873.299 454.174 866.237 509.127 865.927 511.451C865.889 511.793 865.705 512.103 865.426 512.299C865.211 512.458 864.958 512.534 864.704 512.534Z" fill="black"/>
<path d="M455.809 1037.7C430.72 1037.7 406.682 1033.58 384.101 1025.38C383.457 1025.14 383.124 1024.43 383.358 1023.79C383.593 1023.15 384.306 1022.82 384.946 1023.05C413.7 1033.48 444.857 1037.24 477.546 1034.2C489.445 1033.09 501.36 1031.78 512.973 1030.29C513.655 1030.21 514.277 1030.69 514.361 1031.37C514.444 1032.04 513.969 1032.67 513.286 1032.76C501.645 1034.24 489.702 1035.56 477.776 1036.67C470.377 1037.36 463.045 1037.7 455.809 1037.7Z" fill="black"/>
<path d="M57.3176 618.525C52.9887 618.525 49.4656 622.045 49.4656 626.371C49.4656 630.703 52.9887 634.223 57.3176 634.223C61.6466 634.223 65.1685 630.703 65.1685 626.371C65.1685 622.045 61.6466 618.525 57.3176 618.525ZM57.3176 636.703C51.6203 636.703 46.9863 632.069 46.9863 626.371C46.9863 620.68 51.6203 616.046 57.3176 616.046C63.0133 616.046 67.6472 620.68 67.6472 626.371C67.6472 632.069 63.0133 636.703 57.3176 636.703Z" fill="black"/>
<path d="M68.2826 581.252C67.5976 581.252 67.043 580.698 67.043 580.009V570.394C67.043 569.712 67.5976 569.157 68.2826 569.157C68.9676 569.157 69.5223 569.712 69.5223 570.394V580.009C69.5223 580.698 68.9676 581.252 68.2826 581.252Z" fill="black"/>
<path d="M68.2826 603.649C67.5976 603.649 67.043 603.089 67.043 602.407V592.792C67.043 592.109 67.5976 591.555 68.2826 591.555C68.9676 591.555 69.5223 592.109 69.5223 592.792V602.407C69.5223 603.089 68.9676 603.649 68.2826 603.649Z" fill="black"/>
<path d="M61.8919 587.643H52.2787C51.5931 587.643 51.0391 587.089 51.0391 586.401C51.0391 585.718 51.5931 585.164 52.2787 585.164H61.8919C62.577 585.164 63.1316 585.718 63.1316 586.401C63.1316 587.089 62.577 587.643 61.8919 587.643Z" fill="black"/>
<path d="M84.2865 587.643H74.6732C73.9882 587.643 73.4336 587.089 73.4336 586.401C73.4336 585.718 73.9882 585.164 74.6732 585.164H84.2865C84.9721 585.164 85.5267 585.718 85.5267 586.401C85.5267 587.089 84.9721 587.643 84.2865 587.643Z" fill="black"/>
<path d="M911.376 225.888C910.856 225.888 910.37 225.553 910.192 225.026L908.397 219.431C908.193 218.78 908.549 218.076 909.2 217.873C909.85 217.662 910.547 218.017 910.758 218.668L912.559 224.27C912.77 224.921 912.415 225.618 911.757 225.829C911.626 225.868 911.507 225.888 911.376 225.888Z" fill="black"/>
<path d="M917.678 245.468C917.155 245.468 916.666 245.137 916.501 244.608L914.702 239.012C914.49 238.358 914.847 237.663 915.502 237.452C916.15 237.247 916.851 237.604 917.063 238.252L918.862 243.854C919.067 244.502 918.71 245.203 918.061 245.408C917.929 245.448 917.803 245.468 917.678 245.468Z" fill="black"/>
<path d="M901.042 236.936C900.518 236.936 900.027 236.603 899.864 236.079C899.648 235.424 900.008 234.724 900.662 234.514L906.253 232.714C906.907 232.505 907.608 232.865 907.811 233.513C908.027 234.167 907.667 234.861 907.012 235.071L901.415 236.877C901.297 236.917 901.166 236.936 901.042 236.936Z" fill="black"/>
<path d="M920.628 230.621C920.102 230.621 919.615 230.288 919.448 229.761C919.235 229.108 919.595 228.415 920.248 228.202L925.841 226.402C926.495 226.188 927.194 226.548 927.401 227.202C927.614 227.855 927.248 228.548 926.601 228.761L921.008 230.561C920.881 230.601 920.755 230.621 920.628 230.621Z" fill="black"/>
<path d="M846.877 170.99C846.597 170.99 846.311 170.896 846.084 170.697C840.422 165.913 834.593 161.19 828.764 156.66C828.217 156.241 828.118 155.461 828.544 154.922C828.964 154.382 829.736 154.282 830.283 154.702C836.145 159.252 842.001 163.995 847.683 168.805C848.203 169.251 848.269 170.03 847.83 170.557C847.583 170.843 847.23 170.99 846.877 170.99Z" fill="black"/>
<path d="M829.518 156.924C829.256 156.924 828.986 156.836 828.76 156.661C747.44 93.5461 650.465 57.5155 555.715 55.199C555.032 55.1844 554.489 54.6161 554.506 53.9314C554.523 53.2612 555.077 52.7221 555.748 52.7221C555.754 52.7221 555.765 52.7221 555.777 52.7221C603.66 53.895 651.704 63.3434 698.588 80.8196C745.167 98.1792 789.481 123.042 830.275 154.702C830.822 155.124 830.924 155.904 830.494 156.443C830.254 156.756 829.882 156.924 829.518 156.924Z" fill="black"/>
<path d="M790.765 159.939C790.524 159.939 790.283 159.869 790.07 159.727C728.31 118.265 659.039 92.9879 589.762 86.6261C589.081 86.5623 588.584 85.9594 588.648 85.2786C588.705 84.5977 589.315 84.0942 589.996 84.158C659.678 90.5553 729.346 115.974 791.453 157.67C792.028 158.053 792.176 158.819 791.793 159.386C791.552 159.748 791.162 159.939 790.765 159.939Z" fill="black"/>
<path d="M864.804 178.682C861.837 178.682 859.054 180.538 858.028 183.498C856.734 187.229 858.72 191.32 862.452 192.614C864.255 193.241 866.203 193.13 867.921 192.294C869.646 191.457 870.94 190 871.568 188.197C872.861 184.465 870.881 180.375 867.144 179.074C866.372 178.806 865.582 178.682 864.804 178.682ZM864.804 195.496C863.746 195.496 862.674 195.319 861.641 194.96C856.616 193.215 853.943 187.706 855.688 182.681C857.433 177.663 862.929 174.99 867.96 176.735C872.986 178.48 875.652 183.982 873.907 189.007C873.064 191.444 871.319 193.398 869.006 194.522C867.673 195.169 866.242 195.496 864.804 195.496Z" fill="black"/>
<path d="M526.124 58.0521L538.498 60.7562L533.864 49.1847C532.185 51.0095 529.146 54.3732 526.124 58.0521ZM540.518 63.7022C540.429 63.7022 540.344 63.6949 540.255 63.6729L523.633 60.0454C523.214 59.9574 522.872 59.657 522.726 59.2466C522.581 58.8435 522.659 58.3965 522.928 58.0594C527.847 51.8962 533.332 46.1141 533.388 46.0555C533.679 45.755 534.11 45.6157 534.518 45.6964C534.932 45.777 535.28 46.0628 535.437 46.4512L541.671 62.002C541.839 62.4271 541.76 62.9107 541.464 63.2625C541.229 63.5483 540.882 63.7022 540.518 63.7022Z" fill="black"/>
<path d="M1004.01 1051.42H764.344C749.956 1051.42 739.192 1038.21 742.089 1024.12L778.45 847.362C781.512 832.497 794.596 821.83 809.769 821.83H1015.35L1004.01 1051.42Z" fill="white"/>
<path d="M809.761 823.068C795.25 823.068 782.585 833.388 779.664 847.61L743.299 1024.37C741.994 1030.72 743.588 1037.24 747.685 1042.27C751.788 1047.3 757.854 1050.18 764.338 1050.18H1002.83L1014.04 823.068H809.761ZM1004.01 1052.66H764.338C757.104 1052.66 750.339 1049.44 745.766 1043.84C741.201 1038.23 739.412 1030.95 740.869 1023.87L777.233 847.111C780.392 831.743 794.074 820.589 809.761 820.589H1015.35C1015.69 820.589 1016.01 820.729 1016.24 820.975C1016.48 821.222 1016.6 821.552 1016.59 821.893L1005.25 1051.48C1005.22 1052.14 1004.67 1052.66 1004.01 1052.66Z" fill="black"/>
<path d="M1034.69 1051.42H988.191C973.798 1051.42 963.03 1038.21 965.932 1024.12L1005.98 829.431C1006.89 825.004 1010.79 821.831 1015.31 821.831H1027.27C1032.23 821.831 1036.36 825.636 1036.76 830.578L1053.14 1031.41C1054.02 1042.19 1045.52 1051.42 1034.69 1051.42Z" fill="white"/>
<path d="M1015.3 823.069C1011.39 823.069 1007.98 825.85 1007.19 829.684L967.146 1024.37C965.843 1030.72 967.436 1037.24 971.539 1042.27C975.635 1047.3 981.697 1050.18 988.183 1050.18H1034.7C1039.57 1050.18 1044.09 1048.2 1047.39 1044.61C1050.7 1041.02 1052.3 1036.37 1051.91 1031.51L1035.52 830.68C1035.17 826.41 1031.55 823.069 1027.26 823.069H1015.3ZM1034.7 1052.66H988.183C980.952 1052.66 974.183 1049.44 969.618 1043.84C965.046 1038.23 963.259 1030.95 964.718 1023.87L1004.77 829.186C1005.79 824.205 1010.23 820.589 1015.3 820.589H1027.26C1032.83 820.589 1037.54 824.932 1037.99 830.479L1054.38 1031.31C1054.82 1036.79 1052.94 1042.25 1049.22 1046.29C1045.49 1050.34 1040.19 1052.66 1034.7 1052.66Z" fill="black"/>
<path d="M971.357 915.854H783.702C783.012 915.854 782.457 915.3 782.457 914.617C782.457 913.929 783.012 913.374 783.702 913.374H971.357C976.367 913.374 980.672 909.972 981.825 905.091L998.37 835.263C998.527 834.597 999.196 834.183 999.865 834.345C1000.53 834.502 1000.94 835.168 1000.78 835.834L984.237 905.668C982.821 911.667 977.52 915.854 971.357 915.854Z" fill="black"/>
<path d="M898.933 914.616L893.676 935.816C892.826 939.404 889.619 941.939 885.939 941.939H848.769C844.725 941.939 841.792 938.083 842.875 934.182L848.314 914.616H898.933Z" fill="white"/>
<path d="M849.259 915.855L844.06 934.514C843.651 935.997 843.944 937.547 844.879 938.773C845.809 939.998 847.225 940.703 848.765 940.703H885.929C889.055 940.703 891.738 938.577 892.46 935.533L897.34 915.855H849.259ZM885.929 943.177H848.765C846.439 943.177 844.307 942.119 842.904 940.273C841.5 938.426 841.052 936.086 841.676 933.854L847.121 914.283C847.271 913.745 847.758 913.376 848.31 913.376H898.926C899.309 913.376 899.666 913.549 899.9 913.852C900.134 914.154 900.219 914.545 900.128 914.915L894.877 936.12C893.889 940.273 890.211 943.177 885.929 943.177Z" fill="black"/>
<path d="M954.229 1034.9H754.874C754.191 1034.9 753.637 1034.34 753.637 1033.66C753.637 1032.97 754.191 1032.42 754.874 1032.42H954.229C954.92 1032.42 955.473 1032.97 955.473 1033.66C955.473 1034.34 954.92 1034.9 954.229 1034.9Z" fill="black"/>
<path d="M857.121 813.806H841.557C837.356 813.806 833.945 817.215 833.945 821.418H864.733C864.733 817.215 861.322 813.806 857.121 813.806Z" fill="black"/>
<path d="M835.312 820.18H863.376C862.791 817.258 860.213 815.047 857.126 815.047H841.562C838.469 815.047 835.89 817.258 835.312 820.18ZM864.734 822.659H833.947C833.268 822.659 832.715 822.105 832.715 821.417C832.715 816.536 836.683 812.568 841.562 812.568H857.126C862.005 812.568 865.973 816.536 865.973 821.417C865.973 822.105 865.42 822.659 864.734 822.659Z" fill="black"/>
<path d="M981.838 813.806H966.28C962.074 813.806 958.664 817.215 958.664 821.417H989.454C989.454 817.215 986.044 813.806 981.838 813.806Z" fill="black"/>
<path d="M960.026 820.182H988.085C987.506 817.261 984.925 815.05 981.835 815.05H966.276C963.186 815.05 960.598 817.261 960.026 820.182ZM989.453 822.661H958.665C957.974 822.661 957.424 822.107 957.424 821.419C957.424 816.539 961.395 812.571 966.276 812.571H981.835C986.716 812.571 990.687 816.539 990.687 821.419C990.687 822.107 990.13 822.661 989.453 822.661Z" fill="black"/>
<path d="M977.772 813.399L980.285 798.501C982.056 787.94 974.937 779.377 964.373 779.377H871.058C860.495 779.377 850.491 787.94 848.713 798.501L846.207 813.399H853.347L855.3 801.803C856.68 793.582 864.464 786.922 872.689 786.922H960.201C968.419 786.922 973.964 793.582 972.578 801.803L970.625 813.399H977.772Z" fill="white"/>
<path d="M972.104 812.154H976.733L979.065 798.297C979.87 793.5 978.764 789.023 975.934 785.682C973.168 782.413 969.072 780.611 964.38 780.611H871.069C861.097 780.611 851.622 788.732 849.942 798.705L847.68 812.154H852.308L854.08 801.599C855.558 792.817 863.912 785.676 872.693 785.676H960.213C964.52 785.676 968.309 787.355 970.886 790.4C973.512 793.506 974.548 797.625 973.813 802.007L972.104 812.154ZM977.776 814.633H970.633C970.276 814.633 969.926 814.477 969.688 814.196C969.457 813.916 969.352 813.547 969.415 813.189L971.369 801.599C971.985 797.944 971.138 794.541 968.995 792C966.901 789.521 963.778 788.155 960.213 788.155H872.693C865.067 788.155 857.813 794.368 856.531 802.007L854.577 813.603C854.472 814.196 853.961 814.633 853.352 814.633H846.216C845.852 814.633 845.502 814.477 845.271 814.196C845.033 813.916 844.928 813.547 844.991 813.189L847.498 798.297C849.367 787.176 859.941 778.132 871.069 778.132H964.38C969.807 778.132 974.59 780.247 977.825 784.081C981.13 787.987 982.44 793.181 981.509 798.705L979.002 813.603C978.904 814.196 978.385 814.633 977.776 814.633Z" fill="black"/>
<path d="M959.739 773.208H877.771C874.474 773.208 871.342 775.884 870.784 779.191L869.584 786.349C869.018 789.651 871.253 792.332 874.557 792.332H956.525C959.829 792.332 962.954 789.651 963.512 786.349L964.719 779.191C965.271 775.884 963.043 773.208 959.739 773.208Z" fill="black"/>
<path d="M877.778 774.444C875.058 774.444 872.469 776.667 872.014 779.392L870.805 786.556C870.598 787.803 870.874 788.956 871.592 789.807C872.29 790.636 873.346 791.089 874.561 791.089H956.527C959.247 791.089 961.829 788.873 962.291 786.142L963.492 778.983C963.706 777.735 963.423 776.582 962.712 775.732C962.008 774.903 960.959 774.444 959.744 774.444H877.778ZM956.527 793.569H874.561C872.607 793.569 870.881 792.802 869.701 791.408C868.5 789.992 868.023 788.122 868.355 786.142L869.563 778.983C870.212 775.116 873.898 771.965 877.778 771.965H959.744C961.698 771.965 963.423 772.732 964.604 774.131C965.798 775.547 966.275 777.416 965.936 779.392L964.735 786.556C964.086 790.423 960.4 793.569 956.527 793.569Z" fill="black"/>
<path d="M987.741 1034.9C987.313 1034.9 986.894 1034.68 986.662 1034.27C986.329 1033.68 986.532 1032.92 987.125 1032.58L1018.63 1014.63V835.55C1018.63 834.868 1019.18 834.313 1019.87 834.313C1020.55 834.313 1021.11 834.868 1021.11 835.55V1015.36C1021.11 1015.8 1020.88 1016.21 1020.48 1016.43L988.356 1034.74C988.161 1034.85 987.951 1034.9 987.741 1034.9Z" fill="black"/>
<path d="M153.421 955.92C153.421 955.92 164.635 1013.04 185.475 1011.3C185.475 1011.3 196.188 1007.35 201.246 1015.18C205.346 1021.53 202.605 1028.57 193.908 1029.26C185.982 1029.88 173.703 1031.24 163.302 1021.37C151.779 1010.43 122.991 982.409 126.516 968.753C128.165 962.362 153.421 955.92 153.421 955.92Z" fill="white"/>
<path d="M152.469 957.448C142.933 960.006 128.738 965.104 127.717 969.061C126.128 975.217 131.16 989.13 164.155 1020.47C173.796 1029.62 185.335 1028.7 192.966 1028.09L193.811 1028.02C197.408 1027.74 200.039 1026.27 201.219 1023.89C202.371 1021.56 202.001 1018.64 200.206 1015.85C195.737 1008.93 186.002 1012.43 185.905 1012.46C185.8 1012.5 185.689 1012.53 185.578 1012.54C185.233 1012.56 184.888 1012.58 184.548 1012.58C165.055 1012.58 154.299 966.078 152.469 957.448ZM185.805 1030.94C178.605 1030.94 170.059 1029.49 162.448 1022.27C134.873 996.081 122.727 978.474 125.315 968.44C127.06 961.685 148.778 955.825 153.115 954.717C153.441 954.633 153.795 954.689 154.083 954.874C154.371 955.053 154.572 955.344 154.637 955.68C154.748 956.239 165.869 1011.42 185.226 1010.08C186.721 1009.59 197.136 1006.52 202.288 1014.51C204.57 1018.04 204.989 1021.86 203.441 1024.99C201.858 1028.19 198.507 1030.14 194.005 1030.49L193.165 1030.56C190.976 1030.74 188.484 1030.94 185.805 1030.94Z" fill="black"/>
<path d="M112.6 834.788C165.852 815.267 198.037 823.292 226.711 835.001C255.386 846.703 291.082 830.355 291.082 830.355C299.189 825.867 305.293 814.299 305.293 814.299L350.183 829.577C348.892 850.755 336.161 882.023 326.486 905.982C316.811 929.941 344.915 943.3 350.904 952.053C356.894 960.806 341.69 979.236 351.826 989.835C361.962 1000.43 359.197 1019.32 345.837 1012.41C332.476 1005.49 331.554 975.088 332.476 968.641C333.397 962.188 297.46 940.642 292.393 940.535C287.325 940.429 281.978 1011.46 293.775 1009.18C309.471 1006.16 319.115 1028.99 302.989 1029.45C286.864 1029.91 277.189 1029.92 271.633 1018.4C266.077 1006.88 257.229 949.143 254.044 940.457C250.859 931.771 238.118 930.036 217.848 926.27C197.578 922.503 188.312 936.981 175.861 948.566C163.409 960.151 132.992 969.352 135.589 980.209C137.69 988.996 149.846 1001.19 154.401 1005.52C155.357 1006.42 156.698 1006.77 157.991 1006.5C167.782 1004.49 183.586 1018.19 174.247 1025.05C164.286 1032.37 143.141 1028.83 139.837 1026.71C136.533 1024.58 85.3169 964.869 108.21 954.012C131.104 943.154 126.774 930.182 126.774 930.182C125.931 923.863 96.2968 907.913 95.618 883.864C94.9324 859.581 86.401 859.351 86.401 859.351C38.7411 850.973 -14.2087 746.944 80.4837 708.081C113.146 694.677 113.441 703.167 113.441 703.167C116.682 717.192 75.6399 719.213 57.6866 740.832C39.7333 762.452 44.566 789.495 67.1666 815.418C90.4635 842.136 112.6 834.788 112.6 834.788Z" fill="white"/>
<path d="M190.565 873.169C169.305 870.875 109.787 873.074 125.643 830.434C171.253 816.666 200.46 824.283 226.713 835.001C243.527 841.862 262.755 839.08 275.784 835.605C283.641 843.714 289.171 851.74 289.171 858.26C289.171 880.848 271.308 898.505 252.633 902.853C233.958 907.202 212.422 875.525 190.565 873.169Z" fill="black"/>
<path d="M313.713 918.748C306.542 909.715 314.303 903.788 312.663 897.654C311.022 891.515 299.17 885.163 308.376 873.628C316.29 863.705 335.535 867.511 340.781 868.776C336.361 881.586 330.405 894.358 326.487 905.982C322.844 916.783 325.154 922.072 327.023 926.298C322.67 926.029 315.003 920.371 313.713 918.748Z" fill="black"/>
<path d="M91.2656 863.28C99.6543 859.642 115.167 853.077 122.99 866.996C131.378 881.922 111.923 892.892 130.926 895.018C164.666 898.796 144.661 930.562 123.651 925.626C123.147 925.111 122.584 924.557 121.989 923.992C117.056 918.35 107.232 910.823 101.364 901.521C98.1013 896.244 95.8028 890.351 95.6187 883.864C95.303 872.66 93.3145 866.582 91.2656 863.28Z" fill="black"/>
<path d="M211.442 924.412C213.521 924.412 215.725 924.613 218.075 925.05L222.161 925.805C240.768 929.219 252 931.279 255.209 940.032C256.526 943.619 258.727 955.07 261.275 968.333C264.94 987.395 269.501 1011.12 272.75 1017.86C277.86 1028.45 286.16 1028.69 302.955 1028.22C306.295 1028.12 308.572 1026.99 309.539 1024.93C310.721 1022.43 309.901 1018.78 307.451 1015.62C304.147 1011.37 299.127 1009.41 294.011 1010.4C292.861 1010.62 291.173 1010.46 289.67 1008.46C282.346 998.701 285.844 949.479 290.151 941.089C290.383 940.636 291.129 939.265 292.42 939.298C297.144 939.399 324.191 955.338 331.571 964.03C333.215 965.972 333.893 967.488 333.705 968.815C332.893 974.49 333.687 1004.73 346.406 1011.31C349.097 1012.7 352.78 1013.72 355.051 1010.68C358.159 1006.53 357.059 997.094 350.931 990.692C344.824 984.306 347.156 975.441 349.215 967.617C350.764 961.735 352.226 956.178 349.883 952.753C348.473 950.693 345.647 948.264 342.373 945.455C332.568 937.026 317.753 924.294 325.338 905.517L325.741 904.516C335.37 880.674 347.319 851.091 348.883 830.445L305.875 815.804C304.212 818.703 298.743 827.529 291.683 831.441C290.121 832.157 255.085 847.917 226.244 836.148C200.203 825.52 167.831 815.86 113.027 835.952C113.016 835.958 113.004 835.963 112.992 835.963C112.055 836.277 89.8 843.256 66.2323 816.23C42.5453 789.064 39.0844 761.294 56.7337 740.043C65.7431 729.192 80.5063 723.142 92.3705 718.278C104.257 713.409 113.648 709.559 112.234 703.442C112.217 703.369 112.206 703.291 112.204 703.212C112.203 703.235 112.162 702.871 111.396 702.451C109.6 701.472 103.042 700.162 80.9557 709.229C31.3448 729.589 27.4938 765.508 29.6127 785.107C33.3087 819.291 59.902 853.38 86.5439 858.114C87.9391 858.215 96.1801 859.821 96.8579 883.831C97.3 899.49 110.699 911.853 119.564 920.029C124.371 924.462 127.571 927.417 127.986 929.902C128.415 931.357 131.486 944.347 108.743 955.131C105.575 956.637 103.899 959.2 103.62 962.978C102.205 982.14 137.633 1023.74 140.51 1025.66C143.24 1027.42 163.802 1031.19 173.515 1024.05C175.883 1022.31 176.459 1020.03 175.228 1017.25C172.891 1011.99 164.423 1006.45 158.242 1007.71C156.524 1008.06 154.774 1007.58 153.548 1006.41C148.504 1001.63 136.539 989.511 134.385 980.5C132.561 972.872 143.927 966.593 155.961 959.944C163.044 956.027 170.369 951.98 175.017 947.66C177.144 945.679 179.21 943.58 181.21 941.554C189.86 932.773 198.097 924.412 211.442 924.412ZM295.298 1030.84C283.896 1030.84 275.489 1029.24 270.518 1018.94C267.127 1011.91 262.725 989.007 258.84 968.798C256.313 955.646 254.129 944.285 252.882 940.882C250.159 933.461 239.453 931.497 221.714 928.24L217.622 927.49C201.497 924.495 192.501 933.623 182.975 943.294C180.959 945.343 178.873 947.458 176.705 949.473C171.836 954.006 164.374 958.125 157.159 962.11C146.467 968.02 135.411 974.132 136.796 979.924C138.852 988.52 151.445 1001 155.255 1004.62C155.893 1005.23 156.824 1005.47 157.743 1005.28C165.085 1003.78 174.742 1010.05 177.494 1016.25C179.187 1020.06 178.272 1023.63 174.982 1026.05C164.671 1033.63 142.903 1030.15 139.167 1027.75C136.16 1025.82 99.7804 984.054 101.138 962.955C101.444 958.192 103.645 954.807 107.679 952.893C129.331 942.623 125.639 930.691 125.599 930.573C125.573 930.495 125.557 930.422 125.546 930.344C125.329 928.721 121.713 925.385 117.884 921.854C108.711 913.392 94.8509 900.604 94.3786 883.903C93.7456 861.467 86.4091 860.594 86.3357 860.588C86.2982 860.588 86.2238 860.577 86.1874 860.571C58.542 855.713 30.9536 820.573 27.148 785.376C24.9541 765.082 28.9042 727.91 80.0138 706.934C97.4147 699.793 108.487 697.616 112.921 700.476C114.309 701.371 114.602 702.513 114.665 702.949C116.485 711.076 106.253 715.267 93.3096 720.573C81.7012 725.33 67.2553 731.251 58.6416 741.627C41.6011 762.144 44.9608 788.062 68.1009 814.601C90.3653 840.133 111.557 833.814 112.198 833.618C167.819 813.23 200.715 823.046 227.181 833.853C255.014 845.214 290.216 829.393 290.567 829.23C298.177 825.011 304.137 813.829 304.197 813.717C304.483 813.18 305.116 812.928 305.693 813.124L350.584 828.402C351.113 828.587 351.455 829.096 351.422 829.656C350.136 850.738 337.885 881.072 328.04 905.445L327.637 906.447C320.718 923.578 334.168 935.135 343.988 943.574C347.395 946.496 350.336 949.025 351.929 951.353C354.913 955.713 353.31 961.802 351.613 968.25C349.627 975.794 347.574 983.595 352.723 988.974C359.887 996.467 360.746 1007.21 357.035 1012.17C354.488 1015.57 350.199 1016.06 345.268 1013.51C331.193 1006.23 330.226 975.626 331.249 968.462C331.269 968.322 331.288 967.528 329.682 965.636C322.352 957 297.031 942.41 292.595 941.795C289.453 945.382 284.645 992.332 290.871 1005.63C292.096 1008.25 293.189 1008.04 293.541 1007.97C299.592 1006.8 305.521 1009.09 309.409 1014.1C312.426 1017.99 313.358 1022.65 311.782 1026C310.409 1028.9 307.298 1030.57 303.025 1030.69C300.316 1030.77 297.737 1030.84 295.298 1030.84Z" fill="black"/>
<path d="M339.939 774.765C334.705 774.255 322.077 773.371 313.568 775.654C312.333 775.985 311.012 775.626 310.077 774.753C306.972 771.86 300.017 764.915 294.319 755.926C286.738 743.972 282.656 753.011 281.198 760.012C279.91 766.191 280.367 777.91 283.847 788.728C284.734 791.482 285.348 794.325 285.683 797.201C287.01 808.596 289.255 838.795 329.492 838.795C329.492 838.795 366.923 840.485 366.923 791.504C366.923 791.504 370.977 755.35 364.007 747.476C360.244 743.222 347.451 765.687 343.511 772.873C342.804 774.16 341.402 774.904 339.939 774.765Z" fill="white"/>
<path d="M287.55 751.343C287.438 751.343 287.328 751.354 287.221 751.376C285.354 751.712 283.465 755.204 282.41 760.264C281.156 766.28 281.653 777.859 285.027 788.347C285.934 791.168 286.569 794.101 286.914 797.061L287.031 798.085C288.372 809.894 291.509 837.558 329.491 837.558C329.683 837.564 342.881 838.011 353.172 828.15C361.474 820.192 365.683 807.863 365.683 791.504C365.683 791.454 365.686 791.409 365.69 791.364C366.801 781.458 368.494 754.415 363.078 748.293C362.991 748.198 362.941 748.17 362.787 748.186C360.028 748.494 352.717 758.652 344.597 773.472C343.651 775.195 341.765 776.186 339.818 776.001C334.803 775.509 322.236 774.613 313.889 776.852C312.267 777.283 310.482 776.83 309.23 775.66C306.384 773.007 299.131 765.832 293.27 756.592C291.111 753.184 289.097 751.343 287.55 751.343ZM330.018 840.049C329.694 840.049 329.495 840.037 329.435 840.037C289.295 840.037 285.982 810.834 284.568 798.365L284.451 797.347C284.125 794.548 283.524 791.773 282.666 789.103C278.998 777.703 278.704 765.9 279.984 759.76C280.759 756.038 282.673 749.681 286.777 748.936C289.532 748.433 292.344 750.503 295.365 755.266C301.072 764.265 308.146 771.255 310.923 773.847C311.554 774.44 312.447 774.669 313.247 774.457C321.984 772.112 334.907 773.03 340.058 773.533C341.055 773.628 341.955 773.13 342.422 772.28C348.899 760.465 357.641 746.267 362.512 745.724C363.439 745.618 364.311 745.948 364.935 746.653C372.098 754.746 368.415 789.293 368.162 791.571C368.15 808.624 363.673 821.541 354.856 829.969C344.921 839.467 332.825 840.049 330.018 840.049Z" fill="black"/>
<path d="M329.67 87.6953C327.757 121.571 353.668 150.575 387.542 152.486C421.414 154.405 450.426 128.495 452.34 94.6191C454.249 60.7435 428.342 31.7317 394.466 29.8204C360.592 27.9091 331.582 53.8197 329.67 87.6953Z" fill="white"/>
<path d="M390.925 30.9697C376.127 30.9697 362.031 36.333 350.905 46.2635C338.914 56.9752 331.812 71.7186 330.904 87.7711C329.999 103.824 335.397 119.266 346.108 131.257C356.818 143.249 371.557 150.352 387.609 151.26C403.653 152.16 419.106 146.767 431.099 136.055C443.086 125.344 450.189 110.608 451.096 94.5552C452.002 78.5026 446.607 63.0525 435.896 51.0615C425.183 39.0704 410.448 31.9665 394.394 31.0664C393.233 30.9995 392.077 30.9697 390.925 30.9697ZM391.081 153.834C389.88 153.834 388.679 153.804 387.469 153.73C370.755 152.792 355.41 145.391 344.259 132.909C333.108 120.419 327.486 104.344 328.43 87.6299C329.374 70.9152 336.77 55.5693 349.254 44.4188C361.739 33.2683 377.804 27.6447 394.534 28.5894C411.248 29.5341 426.594 36.928 437.742 49.4101C448.896 61.8995 454.515 77.9819 453.575 94.6891C452.629 111.404 445.236 126.75 432.75 137.9C421.165 148.247 406.485 153.834 391.081 153.834Z" fill="black"/>
<path d="M335.578 88.0277C333.85 118.64 357.264 144.849 387.874 146.581C418.485 148.305 444.7 124.893 446.429 94.2878C448.152 63.6755 424.742 37.4586 394.131 35.7345C363.521 34.003 337.306 57.4154 335.578 88.0277Z" fill="white"/>
<path d="M341.974 88.3903C340.445 115.472 361.156 138.66 388.232 140.184C415.308 141.714 438.495 121.006 440.023 93.9317C441.551 66.8502 420.844 43.6616 393.767 42.1383C366.691 40.6076 343.502 61.3161 341.974 88.3903Z" fill="white"/>
<path d="M391.069 143.059C390.075 143.059 389.078 143.03 388.077 142.971C374.238 142.189 361.53 136.07 352.296 125.733C343.061 115.389 338.406 102.074 339.188 88.2348C339.226 87.5491 339.805 87.033 340.495 87.0699C341.179 87.1068 341.702 87.6892 341.663 88.3749C340.919 101.55 345.352 114.231 354.144 124.074C362.938 133.924 375.038 139.756 388.218 140.501C401.382 141.238 414.075 136.807 423.919 128.019C433.763 119.223 439.595 107.124 440.34 93.9414C441.084 80.7662 436.651 68.0849 427.859 58.2422C419.067 48.3921 406.967 42.5602 393.788 41.8229C377.357 40.8865 361.616 48.1635 351.647 61.265C351.231 61.8106 350.453 61.9138 349.909 61.501C349.364 61.0881 349.26 60.3065 349.673 59.7609C360.144 46.0032 376.688 38.3724 393.928 39.3456C407.767 40.1272 420.477 46.2466 429.712 56.5906C438.946 66.9273 443.596 80.2426 442.813 94.0814C442.035 107.92 435.912 120.631 425.57 129.869C415.983 138.429 403.827 143.059 391.069 143.059Z" fill="black"/>
<path d="M388.483 120.585L388.099 113.782C383.29 113.839 378.563 112.813 375.754 111.389L377.429 102.894C380.529 104.369 384.838 105.634 389.492 105.374C393.573 105.142 396.276 103.407 396.115 100.545C395.961 97.8263 393.573 96.2358 388.174 94.7466C380.368 92.5994 374.938 89.31 374.546 82.3697C374.191 76.0657 378.351 70.8749 385.928 68.9447L385.543 62.1418L392.559 61.7442L392.915 68.0483C397.725 67.9904 401 68.8073 403.43 69.8195L401.812 78.0321C399.905 77.3453 396.518 75.8849 391.364 76.1741C386.71 76.4416 385.319 78.531 385.432 80.5335C385.566 82.8975 388.156 84.2567 394.372 86.2086C403.06 88.7317 406.72 92.4765 407.085 98.918C407.443 105.294 403.239 110.984 395.087 112.885L395.5 120.187L388.483 120.585Z" fill="black"/>
<path d="M225.413 306.437C208.829 277.893 172.25 268.203 143.711 284.786C115.172 301.368 105.48 337.95 122.064 366.488C138.647 395.026 175.228 404.716 203.766 388.133C232.305 371.551 241.997 334.975 225.413 306.437Z" fill="white"/>
<path d="M173.64 277.917C163.443 277.917 153.383 280.604 144.332 285.86C116.43 302.076 106.92 337.967 123.133 365.869C139.349 393.77 175.236 403.284 203.142 387.067C231.044 370.851 240.554 334.96 224.34 307.059C216.486 293.541 203.837 283.896 188.725 279.893C183.734 278.57 178.67 277.917 173.64 277.917ZM173.84 397.459C152.797 397.459 132.303 386.581 120.991 367.114C104.09 338.032 114.002 300.617 143.087 283.718C157.173 275.533 173.606 273.321 189.361 277.496C205.112 281.666 218.296 291.726 226.483 305.813C243.384 334.901 233.471 372.31 204.387 389.209C194.77 394.802 184.235 397.459 173.84 397.459Z" fill="black"/>
<path d="M165.309 372.163L208.644 346.979C213.167 344.35 214.703 338.554 212.074 334.033L195.901 306.202C193.273 301.675 187.476 300.141 182.953 302.77L139.619 327.948C135.096 330.578 133.56 336.374 136.188 340.895L152.361 368.732C154.99 373.253 160.787 374.787 165.309 372.163Z" fill="white"/>
<path d="M187.697 302.732C186.292 302.732 184.872 303.096 183.574 303.847L140.239 329.028C138.338 330.131 136.981 331.916 136.419 334.035C135.856 336.161 136.154 338.384 137.258 340.285L153.431 368.117C154.536 370.017 156.316 371.374 158.441 371.934C160.568 372.5 162.786 372.2 164.686 371.097L208.019 345.916C209.919 344.813 211.277 343.034 211.84 340.908C212.404 338.783 212.105 336.565 211.001 334.665L194.829 306.827C193.302 304.205 190.535 302.732 187.697 302.732ZM160.568 374.689C156.873 374.689 153.273 372.778 151.288 369.358L135.116 341.526C133.677 339.054 133.289 336.167 134.022 333.406C134.755 330.639 136.52 328.324 138.995 326.885L182.329 301.704C187.437 298.736 194.004 300.48 196.971 305.585L213.143 333.417C214.581 335.889 214.97 338.777 214.237 341.544C213.504 344.304 211.738 346.62 209.264 348.058L165.93 373.24C164.242 374.221 162.393 374.689 160.568 374.689Z" fill="black"/>
<path d="M175.041 340.804C174.855 340.804 174.667 340.764 174.488 340.673C173.875 340.366 173.628 339.623 173.934 339.009L185.803 315.293C186.111 314.685 186.854 314.435 187.467 314.742C188.08 315.049 188.328 315.793 188.022 316.406L176.152 340.117C175.934 340.554 175.497 340.804 175.041 340.804Z" fill="black"/>
<path d="M174.912 340.884C174.889 340.884 174.867 340.884 174.844 340.879L148.363 339.451C147.679 339.412 147.155 338.83 147.191 338.147C147.229 337.465 147.834 336.939 148.496 336.978L174.977 338.405C175.661 338.444 176.185 339.026 176.149 339.709C176.113 340.369 175.565 340.884 174.912 340.884Z" fill="black"/>
<path d="M264.116 135.481C246.937 108.808 211.384 101.107 184.708 118.284C158.031 135.467 150.332 171.022 167.512 197.695C184.693 224.375 220.245 232.069 246.923 214.892C273.598 197.709 281.296 162.161 264.116 135.481Z" fill="white"/>
<path d="M215.701 110.361C205.027 110.361 194.565 113.416 185.376 119.338C172.754 127.465 164.052 140.025 160.874 154.701C157.696 169.376 160.423 184.406 168.554 197.029C176.683 209.652 189.242 218.357 203.916 221.537C218.59 224.71 233.624 221.982 246.25 213.855C272.308 197.071 279.855 162.216 263.073 136.156C254.944 123.534 242.386 114.836 227.71 111.656C223.717 110.793 219.693 110.361 215.701 110.361ZM215.931 225.308C211.761 225.308 207.565 224.863 203.393 223.958C188.07 220.639 174.958 211.551 166.47 198.372C157.981 185.193 155.134 169.494 158.451 154.172C161.768 138.849 170.855 125.74 184.035 117.25C197.215 108.761 212.916 105.915 228.235 109.234C243.557 112.553 256.669 121.634 265.158 134.813C282.68 162.028 274.8 198.414 247.592 215.942C238 222.114 227.073 225.308 215.931 225.308Z" fill="black"/>
<path d="M207.741 194.832C207.796 199.253 211.423 202.788 215.843 202.736C220.261 202.678 223.799 199.052 223.744 194.632C223.688 190.211 220.061 186.676 215.642 186.734C211.223 186.786 207.686 190.411 207.741 194.832Z" fill="black"/>
<path d="M229.909 184.632C230.935 184.619 231.949 184.173 232.657 183.321C233.939 181.781 233.729 179.494 232.187 178.209C227.16 174.028 221.47 171.852 215.734 171.924C209.999 171.996 204.367 174.31 199.445 178.616C197.936 179.939 197.783 182.233 199.104 183.741C200.424 185.248 202.719 185.405 204.227 184.081C207.882 180.883 211.784 179.238 215.825 179.186C219.867 179.133 223.809 180.687 227.543 183.787C228.234 184.363 229.075 184.639 229.909 184.632Z" fill="black"/>
<path d="M193.313 171.991C194.14 171.977 194.968 171.691 195.643 171.106C201.895 165.689 208.617 162.9 215.623 162.807C222.629 162.721 229.419 165.343 235.804 170.6C237.353 171.877 239.641 171.658 240.915 170.107C242.19 168.557 241.968 166.274 240.42 164.997C232.783 158.708 224.177 155.441 215.532 155.547C206.887 155.653 198.365 159.141 190.888 165.615C189.373 166.926 189.208 169.222 190.521 170.74C191.249 171.578 192.281 172.004 193.313 171.991Z" fill="black"/>
<path d="M184.738 159.01C185.577 158.997 186.415 158.7 187.093 158.098C195.933 150.301 205.462 146.288 215.414 146.166C225.365 146.038 234.991 149.815 244.023 157.389C245.56 158.679 247.85 158.477 249.138 156.943C250.427 155.402 250.225 153.112 248.689 151.828C243.658 147.605 238.328 144.369 232.848 142.2C227.136 139.937 221.24 138.829 215.322 138.903C209.405 138.977 203.538 140.234 197.885 142.633C192.46 144.943 187.214 148.315 182.29 152.653C180.786 153.984 180.642 156.274 181.969 157.781C182.697 158.605 183.717 159.024 184.738 159.01Z" fill="black"/>
<path d="M196.229 582.186C195.694 582.186 195.201 581.834 195.04 581.296C194.846 580.642 195.221 579.948 195.877 579.757C200.652 578.341 205.64 577.39 210.706 576.931C211.38 576.87 211.99 577.373 212.052 578.056C212.114 578.733 211.61 579.338 210.929 579.399C206.027 579.841 201.2 580.765 196.582 582.13C196.464 582.169 196.346 582.186 196.229 582.186ZM240.253 582.276C240.141 582.276 240.024 582.265 239.909 582.231C235.21 580.871 230.377 579.948 225.547 579.466C224.865 579.405 224.368 578.795 224.434 578.112C224.502 577.435 225.096 576.931 225.789 577.004C230.771 577.491 235.752 578.448 240.597 579.847C241.254 580.037 241.634 580.726 241.444 581.38C241.288 581.923 240.792 582.276 240.253 582.276ZM266.78 595.389C266.524 595.389 266.268 595.31 266.046 595.148C262.1 592.243 257.895 589.68 253.549 587.525C252.935 587.223 252.684 586.479 252.987 585.863C253.291 585.253 254.032 585.001 254.649 585.304C259.124 587.52 263.453 590.161 267.516 593.156C268.068 593.558 268.186 594.336 267.78 594.885C267.536 595.215 267.161 595.389 266.78 595.389ZM170.4 596.424C170.06 596.424 169.721 596.29 169.476 596.015C169.02 595.506 169.063 594.723 169.573 594.264C173.294 590.928 177.452 587.995 181.926 585.544C182.528 585.214 183.28 585.438 183.609 586.037C183.938 586.636 183.718 587.391 183.118 587.721C178.809 590.077 174.808 592.904 171.227 596.111C170.991 596.323 170.695 596.424 170.4 596.424ZM153.72 620.708C153.573 620.708 153.423 620.68 153.276 620.624C152.637 620.383 152.317 619.667 152.563 619.023C154.391 614.266 156.753 609.755 159.582 605.63C159.971 605.065 160.741 604.92 161.306 605.306C161.871 605.697 162.015 606.464 161.628 607.029C158.907 610.997 156.636 615.335 154.878 619.913C154.689 620.405 154.218 620.708 153.72 620.708ZM149.038 649.877C148.369 649.877 147.817 649.345 147.799 648.668C147.777 647.851 147.767 647.039 147.766 646.234C147.766 641.924 148.084 637.682 148.712 633.624C148.816 632.947 149.449 632.483 150.127 632.589C150.804 632.695 151.267 633.328 151.162 634.005C150.553 637.934 150.244 642.047 150.244 646.228C150.246 647.011 150.257 647.806 150.278 648.601C150.297 649.289 149.757 649.854 149.073 649.877C149.061 649.877 149.05 649.877 149.038 649.877ZM154.857 678.862C154.374 678.862 153.914 678.576 153.714 678.1C151.832 673.623 150.376 668.76 149.39 663.639C149.262 662.967 149.701 662.318 150.373 662.189C151.05 662.055 151.695 662.497 151.826 663.169C152.78 668.122 154.184 672.823 156 677.138C156.265 677.77 155.969 678.498 155.338 678.761C155.181 678.828 155.018 678.862 154.857 678.862ZM293.037 680.02C292.743 680.02 292.448 679.919 292.212 679.707C291.701 679.253 291.655 678.47 292.11 677.961C295.339 674.334 298.483 670.483 301.458 666.521C301.869 665.978 302.646 665.866 303.193 666.275C303.741 666.689 303.851 667.467 303.441 668.01C300.425 672.028 297.236 675.929 293.963 679.606C293.718 679.88 293.378 680.02 293.037 680.02ZM270.714 699.53C270.305 699.53 269.905 699.328 269.669 698.959C269.3 698.382 269.469 697.616 270.046 697.246C274.217 694.577 278.163 691.616 281.779 688.437C282.29 687.984 283.075 688.029 283.529 688.544C283.98 689.059 283.93 689.842 283.416 690.295C279.707 693.558 275.657 696.603 271.38 699.334C271.174 699.468 270.943 699.53 270.714 699.53ZM172.628 702.278C172.364 702.278 172.096 702.194 171.87 702.015C167.859 698.903 164.279 695.276 161.228 691.236C160.816 690.687 160.924 689.909 161.471 689.501C162.018 689.086 162.794 689.193 163.207 689.741C166.125 693.609 169.551 697.078 173.39 700.056C173.931 700.476 174.029 701.253 173.609 701.796C173.365 702.11 172.999 702.278 172.628 702.278ZM243.703 711.769C243.166 711.769 242.672 711.417 242.513 710.88C242.321 710.219 242.699 709.531 243.356 709.341C248.043 707.969 252.677 706.251 257.131 704.236C257.755 703.957 258.489 704.231 258.772 704.858C259.054 705.479 258.777 706.212 258.153 706.497C253.595 708.557 248.849 710.314 244.051 711.719C243.934 711.753 243.819 711.769 243.703 711.769ZM199.571 714.249C199.49 714.249 199.407 714.243 199.324 714.226C194.246 713.202 189.394 711.68 184.898 709.715C184.271 709.441 183.986 708.708 184.26 708.081C184.533 707.454 185.263 707.169 185.893 707.443C190.226 709.341 194.91 710.801 199.815 711.792C200.486 711.932 200.921 712.587 200.785 713.253C200.666 713.846 200.148 714.249 199.571 714.249ZM215.987 715.844C215.43 715.844 214.874 715.838 214.317 715.827C213.633 715.816 213.088 715.251 213.1 714.568C213.112 713.891 213.666 713.348 214.34 713.348C214.348 713.348 214.355 713.348 214.363 713.348C219.149 713.437 224.077 713.129 229.001 712.441C229.676 712.34 230.305 712.816 230.4 713.493C230.495 714.17 230.022 714.797 229.344 714.892C224.864 715.525 220.369 715.844 215.987 715.844Z" fill="black"/>
<path d="M329.918 456.605C329.352 456.605 328.84 456.213 328.71 455.636C327.668 451.008 326.519 446.145 325.293 441.192C325.128 440.526 325.533 439.854 326.198 439.686C326.858 439.524 327.535 439.927 327.699 440.593C328.929 445.568 330.083 450.443 331.129 455.093C331.279 455.759 330.859 456.425 330.192 456.577C330.1 456.593 330.008 456.605 329.918 456.605ZM335.693 485.785C335.098 485.785 334.573 485.36 334.472 484.75C333.677 480.026 332.775 475.118 331.791 470.159C331.657 469.488 332.094 468.833 332.765 468.699C333.445 468.564 334.09 469.001 334.222 469.673C335.212 474.659 336.119 479.59 336.917 484.341C337.03 485.018 336.574 485.656 335.9 485.768C335.83 485.78 335.761 485.785 335.693 485.785ZM339.602 515.274C338.97 515.274 338.429 514.792 338.37 514.154C337.918 509.358 337.353 504.405 336.688 499.418C336.597 498.741 337.075 498.12 337.753 498.025C338.432 497.93 339.055 498.411 339.146 499.094C339.814 504.108 340.383 509.095 340.837 513.919C340.902 514.602 340.401 515.206 339.72 515.268C339.679 515.274 339.641 515.274 339.602 515.274ZM341.058 544.98C340.374 544.98 339.819 544.426 339.819 543.743C339.816 538.913 339.689 533.932 339.44 528.935C339.406 528.252 339.932 527.67 340.617 527.636C341.299 527.608 341.882 528.129 341.917 528.812C342.167 533.849 342.296 538.874 342.298 543.743C342.298 544.426 341.743 544.98 341.059 544.98C341.058 544.98 341.058 544.98 341.058 544.98ZM339.388 574.67C339.339 574.67 339.291 574.67 339.243 574.664C338.562 574.58 338.075 573.965 338.155 573.288C338.718 568.491 339.143 563.527 339.419 558.541C339.457 557.858 340.062 557.337 340.724 557.371C341.408 557.41 341.932 557.998 341.894 558.681C341.616 563.717 341.187 568.726 340.618 573.573C340.544 574.206 340.008 574.67 339.388 574.67ZM333.901 603.884C333.796 603.884 333.689 603.873 333.583 603.845C332.922 603.666 332.526 602.989 332.701 602.328C333.94 597.644 335.03 592.792 335.941 587.906C336.066 587.234 336.705 586.787 337.388 586.915C338.061 587.044 338.504 587.688 338.379 588.365C337.456 593.307 336.353 598.215 335.098 602.961C334.952 603.515 334.45 603.884 333.901 603.884ZM324.052 631.912C323.883 631.912 323.712 631.878 323.547 631.806C322.922 631.526 322.641 630.793 322.921 630.166C324.907 625.722 326.742 621.105 328.374 616.448C328.599 615.805 329.307 615.463 329.954 615.687C330.599 615.917 330.939 616.622 330.712 617.271C329.059 621.989 327.198 626.668 325.185 631.179C324.979 631.638 324.527 631.912 324.052 631.912Z" fill="black"/>
<path d="M213.967 258.929C213.65 258.929 213.333 258.807 213.091 258.563C209.493 254.971 205.9 251.501 202.413 248.262C201.912 247.798 201.883 247.012 202.349 246.511C202.814 246.011 203.599 245.981 204.101 246.444C207.61 249.707 211.224 253.196 214.844 256.813C215.328 257.295 215.328 258.081 214.844 258.563C214.602 258.807 214.284 258.929 213.967 258.929ZM234.344 280.618C234.001 280.618 233.661 280.478 233.415 280.203C230.119 276.476 226.755 272.787 223.415 269.231C222.946 268.731 222.971 267.944 223.47 267.48C223.972 267.011 224.755 267.035 225.224 267.535C228.578 271.109 231.959 274.818 235.273 278.556C235.727 279.069 235.678 279.855 235.166 280.307C234.93 280.514 234.637 280.618 234.344 280.618ZM253.448 303.429C253.08 303.429 252.719 303.27 252.474 302.959C249.433 299.117 246.282 295.244 243.105 291.45C242.666 290.925 242.734 290.145 243.26 289.706C243.785 289.266 244.569 289.334 245.006 289.858C248.197 293.67 251.364 297.561 254.418 301.422C254.843 301.959 254.752 302.739 254.215 303.166C253.987 303.343 253.717 303.429 253.448 303.429ZM271.241 327.301C270.85 327.301 270.465 327.118 270.225 326.77C267.441 322.793 264.513 318.744 261.523 314.73C261.113 314.181 261.225 313.407 261.775 312.998C262.321 312.59 263.101 312.699 263.51 313.248C266.516 317.28 269.458 321.348 272.256 325.349C272.647 325.91 272.511 326.685 271.95 327.075C271.733 327.228 271.486 327.301 271.241 327.301ZM287.462 352.246C287.041 352.246 286.629 352.033 286.398 351.642C283.92 347.507 281.275 343.274 278.532 339.066C278.158 338.493 278.321 337.724 278.895 337.352C279.468 336.974 280.237 337.139 280.61 337.712C283.369 341.951 286.031 346.208 288.524 350.368C288.876 350.959 288.684 351.716 288.097 352.069C287.897 352.191 287.679 352.246 287.462 352.246ZM301.563 378.442C301.097 378.442 300.652 378.18 300.44 377.735C298.414 373.447 296.159 369.001 293.737 364.524C293.412 363.92 293.637 363.17 294.239 362.841C294.842 362.517 295.593 362.743 295.919 363.347C298.361 367.866 300.636 372.349 302.682 376.673C302.973 377.289 302.71 378.034 302.091 378.326C301.919 378.406 301.739 378.442 301.563 378.442Z" fill="black"/>
<path d="M238.168 641.963C238.168 654.488 228.015 664.641 215.49 664.641C202.966 664.641 192.812 654.488 192.812 641.963C192.812 629.438 202.966 619.286 215.49 619.286C228.015 619.286 238.168 629.438 238.168 641.963ZM219.895 596.39H211.085L208.969 605.776C206.929 606.145 204.945 606.671 203.037 607.354L196.519 600.297L188.89 604.701L191.75 613.885C190.188 615.212 188.738 616.661 187.415 618.223L178.226 615.363L173.821 622.991L180.882 629.511C180.196 631.419 179.669 633.401 179.304 635.443L169.918 637.559V646.368L179.304 648.483C179.669 650.526 180.196 652.507 180.882 654.416L173.822 660.936L178.226 668.564L187.415 665.704C188.738 667.265 190.188 668.715 191.75 670.036L188.89 679.225L196.519 683.63L203.037 676.573C204.945 677.255 206.929 677.781 208.969 678.151L211.085 687.536H219.895L222.012 678.151C224.051 677.781 226.035 677.255 227.943 676.573L234.462 683.63L242.091 679.225L239.231 670.036C240.793 668.715 242.243 667.265 243.566 665.704L252.754 668.564L257.159 660.936L250.098 654.416C250.785 652.507 251.311 650.526 251.676 648.483L261.062 646.368V637.559L251.676 635.443C251.311 633.401 250.785 631.419 250.098 629.511L257.159 622.991L252.754 615.363L243.566 618.223C242.243 616.661 240.793 615.212 239.231 613.885L242.091 604.701L234.462 600.297L227.943 607.354C226.035 606.671 224.051 606.14 222.012 605.776L219.895 596.39Z" fill="white"/>
<path d="M215.489 620.523C203.668 620.523 194.051 630.143 194.051 641.963C194.051 653.783 203.668 663.404 215.489 663.404C227.31 663.404 236.927 653.783 236.927 641.963C236.927 630.143 227.31 620.523 215.489 620.523ZM215.489 665.883C202.301 665.883 191.572 655.149 191.572 641.963C191.572 628.778 202.301 618.044 215.489 618.044C228.676 618.044 239.406 628.778 239.406 641.963C239.406 655.149 228.676 665.883 215.489 665.883ZM212.075 686.294H218.902L220.801 677.877C220.912 677.39 221.302 677.015 221.792 676.931C223.765 676.578 225.693 676.063 227.521 675.403C227.99 675.235 228.515 675.364 228.852 675.727L234.699 682.063L240.612 678.649L238.046 670.405C237.898 669.929 238.049 669.415 238.429 669.09C239.93 667.82 241.34 666.409 242.619 664.904C242.941 664.523 243.46 664.372 243.933 664.518L252.176 667.086L255.589 661.171L249.256 655.328C248.89 654.992 248.762 654.466 248.93 653.996C249.589 652.166 250.102 650.241 250.456 648.265C250.544 647.778 250.917 647.386 251.403 647.274L259.822 645.377V638.549L251.403 636.652C250.917 636.54 250.544 636.148 250.456 635.662C250.102 633.686 249.589 631.761 248.93 629.931C248.762 629.461 248.89 628.94 249.256 628.599L255.589 622.75L252.176 616.84L243.933 619.409C243.46 619.555 242.941 619.403 242.619 619.023C241.34 617.517 239.932 616.107 238.429 614.837C238.049 614.512 237.898 613.997 238.046 613.521L240.612 605.278L234.699 601.864L228.852 608.194C228.515 608.563 227.995 608.692 227.521 608.524C225.691 607.863 223.764 607.348 221.793 606.996C221.302 606.912 220.912 606.537 220.801 606.05L218.902 597.633H212.075L210.177 606.05C210.067 606.537 209.677 606.912 209.186 606.996C207.212 607.348 205.286 607.863 203.456 608.524C202.989 608.692 202.462 608.563 202.126 608.194L196.28 601.864L190.367 605.278L192.932 613.521C193.08 613.997 192.929 614.512 192.55 614.837C191.042 616.113 189.634 617.517 188.361 619.023C188.039 619.403 187.52 619.555 187.046 619.409L178.802 616.84L175.39 622.756L181.722 628.599C182.088 628.94 182.216 629.461 182.048 629.931C181.388 631.761 180.876 633.692 180.523 635.662C180.437 636.148 180.062 636.54 179.576 636.652L171.157 638.549V645.377L179.576 647.274C180.062 647.386 180.437 647.778 180.523 648.265C180.876 650.235 181.388 652.166 182.048 653.996C182.216 654.466 182.088 654.987 181.722 655.328L175.39 661.171L178.802 667.086L187.046 664.518C187.52 664.372 188.039 664.523 188.361 664.904C189.634 666.409 191.042 667.82 192.55 669.09C192.929 669.415 193.08 669.929 192.932 670.405L190.367 678.649L196.28 682.063L202.126 675.727C202.462 675.364 202.989 675.235 203.456 675.403C205.284 676.063 207.211 676.578 209.187 676.931C209.677 677.015 210.067 677.39 210.177 677.877L212.075 686.294ZM219.894 688.773H211.084C210.504 688.773 210.002 688.376 209.875 687.805L207.938 679.214C206.386 678.901 204.864 678.498 203.397 678.011L197.428 684.475C197.035 684.9 196.397 684.995 195.898 684.704L188.269 680.3C187.767 680.009 187.533 679.41 187.705 678.856L190.324 670.444C189.153 669.409 188.041 668.295 187.008 667.131L178.593 669.745C178.044 669.918 177.441 669.683 177.151 669.185L172.746 661.557C172.457 661.053 172.554 660.415 172.979 660.023L179.444 654.057C178.952 652.586 178.548 651.063 178.237 649.513L169.645 647.577C169.08 647.448 168.678 646.95 168.678 646.368V637.559C168.678 636.977 169.08 636.479 169.645 636.35L178.237 634.414C178.548 632.863 178.952 631.341 179.444 629.869L172.979 623.903C172.554 623.511 172.457 622.873 172.746 622.37L177.151 614.742C177.44 614.238 178.042 614.008 178.593 614.176L187.008 616.801C188.041 615.631 189.153 614.518 190.324 613.482L187.705 605.065C187.533 604.517 187.767 603.918 188.269 603.627L195.898 599.222C196.398 598.931 197.035 599.026 197.428 599.452L203.397 605.916C204.865 605.429 206.387 605.02 207.938 604.712L209.875 596.116C210.002 595.551 210.504 595.153 211.084 595.153H219.894C220.474 595.153 220.976 595.551 221.103 596.116L223.041 604.712C224.591 605.02 226.113 605.429 227.581 605.916L233.55 599.452C233.944 599.026 234.582 598.931 235.081 599.222L242.71 603.627C243.212 603.918 243.446 604.517 243.274 605.065L240.654 613.482C241.823 614.518 242.934 615.626 243.971 616.801L252.385 614.176C252.936 614.008 253.536 614.243 253.827 614.742L258.233 622.37C258.522 622.873 258.424 623.511 258 623.903L251.534 629.869C252.025 631.341 252.43 632.863 252.741 634.414L261.334 636.35C261.899 636.479 262.301 636.977 262.301 637.559V646.368C262.301 646.95 261.899 647.448 261.334 647.577L252.741 649.513C252.43 651.063 252.025 652.586 251.534 654.057L258 660.023C258.424 660.415 258.522 661.053 258.233 661.557L253.827 669.185C253.536 669.683 252.934 669.918 252.385 669.745L243.971 667.126C242.934 668.301 241.823 669.409 240.654 670.444L243.274 678.862C243.446 679.41 243.212 680.009 242.71 680.3L235.081 684.704C234.578 684.995 233.943 684.9 233.55 684.475L227.581 678.011C226.113 678.498 224.592 678.901 223.041 679.214L221.103 687.805C220.976 688.376 220.474 688.773 219.894 688.773Z" fill="black"/>
<path d="M203.48 515.262C203.48 536.692 186.106 554.069 164.674 554.069C143.242 554.069 125.868 536.692 125.868 515.262C125.868 493.833 143.242 476.456 164.674 476.456C186.106 476.456 203.48 493.833 203.48 515.262ZM172.211 437.28H157.136L153.514 453.342C150.023 453.969 146.63 454.864 143.364 456.039L132.21 443.962L119.156 451.495L124.049 467.221C121.376 469.482 118.895 471.967 116.632 474.637L100.908 469.745L93.3704 482.797L105.453 493.951C104.279 497.219 103.377 500.611 102.752 504.103L86.6914 507.724V522.801L102.752 526.422C103.377 529.914 104.279 533.306 105.453 536.574L93.3704 547.728L100.908 560.779L116.632 555.888C118.895 558.563 121.376 561.042 124.049 563.303L119.156 579.03L132.21 586.568L143.364 574.485C146.63 575.661 150.023 576.562 153.514 577.183L157.136 593.245H172.211L175.834 577.183C179.324 576.562 182.718 575.661 185.983 574.485L197.137 586.568L210.192 579.03L205.299 563.303C207.972 561.042 210.453 558.563 212.716 555.888L228.44 560.779L235.977 547.728L223.894 536.574C225.07 533.306 225.971 529.914 226.595 526.422L242.656 522.801V507.724L226.595 504.103C225.971 500.611 225.07 497.219 223.894 493.951L235.977 482.797L228.44 469.745L212.716 474.637C210.453 471.967 207.972 469.482 205.299 467.221L210.192 451.495L197.137 443.962L185.983 456.039C182.718 454.864 179.324 453.969 175.834 453.342L172.211 437.28Z" fill="white"/>
<path d="M164.674 477.698C154.638 477.698 145.205 481.604 138.111 488.701C131.015 495.792 127.107 505.228 127.107 515.262C127.107 535.975 143.958 552.827 164.674 552.827C185.388 552.827 202.239 535.975 202.239 515.262C202.239 494.549 185.388 477.698 164.674 477.698ZM164.674 555.306C142.592 555.306 124.628 537.341 124.628 515.262C124.628 504.567 128.793 494.51 136.356 486.944C143.92 479.383 153.976 475.219 164.674 475.219C186.755 475.219 204.719 493.184 204.719 515.262C204.719 537.341 186.755 555.306 164.674 555.306ZM158.128 592.003H171.219L174.623 576.909C174.733 576.427 175.124 576.052 175.615 575.963C179.038 575.353 182.386 574.457 185.562 573.316C186.031 573.148 186.556 573.276 186.893 573.64L197.375 584.996L208.714 578.453L204.114 563.673C203.966 563.197 204.117 562.677 204.497 562.358C207.107 560.147 209.554 557.701 211.768 555.088C212.092 554.707 212.612 554.556 213.083 554.701L227.862 559.302L234.408 547.963L223.052 537.481C222.687 537.145 222.558 536.619 222.728 536.154C223.871 532.975 224.762 529.629 225.374 526.204C225.462 525.711 225.835 525.325 226.322 525.213L241.416 521.81V508.714L226.322 505.312C225.835 505.2 225.462 504.813 225.374 504.321C224.762 500.896 223.871 497.549 222.728 494.37C222.558 493.906 222.687 493.38 223.052 493.044L234.408 482.561L227.862 471.223L213.083 475.823C212.612 475.969 212.092 475.818 211.768 475.437C209.559 472.829 207.112 470.383 204.496 468.167C204.117 467.848 203.966 467.328 204.114 466.852L208.714 452.077L197.375 445.529L186.893 456.884C186.556 457.248 186.035 457.377 185.562 457.209C182.386 456.067 179.038 455.172 175.615 454.562C175.124 454.472 174.733 454.103 174.623 453.616L171.219 438.522H158.128L154.722 453.616C154.612 454.103 154.222 454.472 153.731 454.562C150.308 455.172 146.961 456.067 143.783 457.209C143.31 457.377 142.789 457.248 142.453 456.884L131.972 445.529L120.633 452.077L125.232 466.852C125.379 467.328 125.228 467.848 124.849 468.167C122.236 470.378 119.789 472.823 117.578 475.437C117.257 475.818 116.737 475.969 116.264 475.823L101.484 471.223L94.9391 482.561L106.295 493.044C106.66 493.38 106.788 493.906 106.619 494.376C105.476 497.549 104.585 500.896 103.972 504.321C103.884 504.813 103.511 505.2 103.024 505.312L87.931 508.714V521.81L103.024 525.213C103.511 525.325 103.884 525.711 103.972 526.204C104.585 529.629 105.476 532.975 106.619 536.154C106.788 536.619 106.66 537.145 106.295 537.481L94.9391 547.963L101.484 559.302L116.264 554.701C116.737 554.556 117.257 554.707 117.578 555.088C119.791 557.701 122.238 560.147 124.849 562.358C125.228 562.682 125.379 563.197 125.232 563.673L120.633 578.453L131.972 584.996L142.453 573.64C142.789 573.276 143.31 573.148 143.783 573.316C146.961 574.457 150.308 575.353 153.731 575.963C154.222 576.052 154.612 576.427 154.722 576.909L158.128 592.003ZM172.21 594.482H157.136C156.556 594.482 156.054 594.085 155.927 593.519L152.484 578.252C149.483 577.675 146.542 576.897 143.72 575.924L133.12 587.408C132.728 587.833 132.09 587.928 131.59 587.637L118.535 580.104C118.032 579.813 117.799 579.214 117.971 578.66L122.621 563.712C120.347 561.736 118.2 559.593 116.221 557.315L101.275 561.966C100.723 562.139 100.124 561.904 99.8333 561.401L92.2958 548.344C92.007 547.846 92.1038 547.208 92.5286 546.816L104.012 536.216C103.04 533.395 102.258 530.457 101.682 527.452L86.4183 524.01C85.8536 523.881 85.4512 523.377 85.4512 522.801V507.724C85.4512 507.147 85.8536 506.644 86.4183 506.515L101.682 503.073C102.258 500.073 103.04 497.129 104.012 494.309L92.5286 483.709C92.1038 483.317 92.007 482.679 92.2958 482.181L99.8333 469.124C100.123 468.62 100.722 468.385 101.275 468.559L116.221 473.21C118.198 470.937 120.346 468.788 122.621 466.813L117.971 451.864C117.799 451.31 118.032 450.711 118.535 450.42L131.59 442.887C132.09 442.596 132.728 442.691 133.12 443.117L143.72 454.601C146.542 453.627 149.483 452.849 152.484 452.273L155.927 437.005C156.054 436.44 156.556 436.043 157.136 436.043H172.21C172.791 436.043 173.293 436.44 173.42 437.005L176.862 452.273C179.864 452.849 182.805 453.627 185.625 454.601L196.227 443.117C196.62 442.691 197.258 442.596 197.757 442.887L210.812 450.42C211.314 450.711 211.548 451.31 211.376 451.864L206.723 466.813C209.002 468.788 211.15 470.937 213.125 473.21L228.072 468.559C228.622 468.391 229.224 468.62 229.513 469.124L237.05 482.181C237.34 482.679 237.243 483.317 236.818 483.709L225.334 494.309C226.306 497.129 227.088 500.073 227.665 503.073L242.928 506.515C243.494 506.644 243.895 507.147 243.895 507.724V522.801C243.895 523.377 243.494 523.881 242.928 524.01L227.665 527.452C227.088 530.451 226.306 533.395 225.334 536.216L236.818 546.816C237.243 547.208 237.34 547.846 237.05 548.344L229.513 561.401C229.223 561.904 228.618 562.134 228.072 561.966L213.125 557.315C211.146 559.593 208.997 561.742 206.723 563.712L211.376 578.66C211.548 579.214 211.314 579.813 210.812 580.104L197.757 587.637C197.254 587.928 196.619 587.833 196.227 587.408L185.625 575.924C182.805 576.897 179.864 577.675 176.862 578.252L173.42 593.519C173.293 594.085 172.791 594.482 172.21 594.482Z" fill="black"/>
<path d="M382.734 397.213H581.575C587.588 397.213 591.041 392.336 589.287 386.329L551.006 254.894C549.252 248.881 542.964 244.01 536.95 244.01H338.105C332.095 244.01 328.642 248.881 330.393 254.894L368.681 386.329C370.431 392.336 376.724 397.213 382.734 397.213Z" fill="white"/>
<path d="M338.106 245.248C335.683 245.248 333.671 246.147 332.445 247.787C331.131 249.537 330.824 251.936 331.584 254.548L369.872 385.981C371.477 391.488 377.247 395.973 382.735 395.973H581.58C584.003 395.973 586.016 395.068 587.24 393.434C588.555 391.684 588.861 389.279 588.096 386.673L549.811 255.24C548.214 249.733 542.438 245.248 536.949 245.248H338.106ZM581.58 398.452H382.735C376.221 398.452 369.384 393.165 367.492 386.673L329.203 255.24C328.221 251.862 328.667 248.686 330.461 246.294C332.168 244.024 334.883 242.77 338.106 242.77H536.949C543.465 242.77 550.306 248.05 552.191 254.548L590.483 385.981C591.462 389.353 591.021 392.528 589.222 394.921C587.515 397.197 584.804 398.452 581.58 398.452Z" fill="black"/>
<path d="M376.273 262.743C375.92 262.743 375.435 262.827 375.144 263.218C374.888 263.555 374.838 264.06 375.004 264.631L378.2 275.596C378.607 276.99 380.113 278.175 381.489 278.175H392.458C392.812 278.175 393.295 278.09 393.587 277.7C393.842 277.363 393.892 276.858 393.726 276.293L390.531 265.322C390.125 263.927 388.618 262.743 387.242 262.743H376.273ZM392.458 280.651H381.489C379.022 280.651 376.532 278.734 375.82 276.293L372.624 265.322C372.241 264.005 372.435 262.695 373.16 261.727C373.858 260.801 374.992 260.266 376.273 260.266H387.242C389.708 260.266 392.2 262.184 392.912 264.631L396.106 275.596C396.491 276.912 396.296 278.223 395.57 279.191C394.873 280.116 393.738 280.651 392.458 280.651Z" fill="black"/>
<path d="M353.38 262.743C353.026 262.743 352.542 262.827 352.251 263.218C351.996 263.555 351.946 264.06 352.111 264.631L355.306 275.596C355.713 276.99 357.219 278.175 358.596 278.175H369.565C369.919 278.175 370.401 278.09 370.695 277.7C370.95 277.363 371 276.858 370.834 276.293L367.638 265.322C367.231 263.927 365.725 262.743 364.348 262.743H353.38ZM369.565 280.651H358.596C356.129 280.651 353.638 278.734 352.927 276.293L349.732 265.322C349.348 264.005 349.543 262.695 350.268 261.727C350.966 260.801 352.1 260.266 353.38 260.266H364.348C366.814 260.266 369.306 262.184 370.018 264.631L373.214 275.596C373.598 276.912 373.403 278.223 372.677 279.191C371.98 280.116 370.846 280.651 369.565 280.651Z" fill="black"/>
<path d="M383.572 287.822C383.218 287.822 382.734 287.904 382.442 288.296C382.187 288.636 382.138 289.134 382.303 289.708L385.499 300.673C385.906 302.073 387.412 303.251 388.789 303.251H399.756C400.111 303.251 400.594 303.169 400.887 302.782C401.139 302.437 401.19 301.939 401.027 301.371L397.831 290.399C397.424 289.005 395.918 287.822 394.541 287.822H383.572ZM399.756 305.729H388.789C386.323 305.729 383.832 303.813 383.119 301.371L379.923 290.399C379.539 289.081 379.735 287.769 380.459 286.808C381.157 285.877 382.291 285.344 383.572 285.344H394.541C397.007 285.344 399.498 287.259 400.21 289.708L403.406 300.673C403.786 301.991 403.596 303.304 402.868 304.27C402.169 305.196 401.038 305.729 399.756 305.729Z" fill="black"/>
<path d="M360.679 287.822C360.324 287.822 359.842 287.904 359.549 288.296C359.295 288.636 359.244 289.134 359.411 289.708L362.605 300.673C363.012 302.073 364.518 303.251 365.894 303.251H376.863C377.217 303.251 377.701 303.169 377.993 302.782C378.249 302.437 378.298 301.939 378.132 301.371L374.936 290.399C374.53 289.005 373.024 287.822 371.647 287.822H360.679ZM376.863 305.729H365.894C363.428 305.729 360.937 303.813 360.225 301.371L357.031 290.399C356.647 289.081 356.841 287.769 357.567 286.808C358.264 285.877 359.398 285.344 360.679 285.344H371.647C374.113 285.344 376.605 287.259 377.316 289.708L380.513 300.673C380.896 301.991 380.701 303.304 379.976 304.27C379.279 305.196 378.145 305.729 376.863 305.729Z" fill="black"/>
<path d="M390.877 311.653H401.846C403.76 311.653 405.769 313.208 406.323 315.122L409.519 326.093C410.078 328.007 408.976 329.562 407.062 329.562H396.093C394.178 329.562 392.172 328.007 391.613 326.093L388.418 315.122C387.861 313.208 388.962 311.653 390.877 311.653Z" fill="white"/>
<path d="M367.984 311.653H378.953C380.869 311.653 382.875 313.208 383.433 315.122L386.628 326.093C387.186 328.007 386.085 329.562 384.169 329.562H373.201C371.285 329.562 369.28 328.007 368.721 326.093L365.526 315.122C364.968 313.208 366.069 311.653 367.984 311.653Z" fill="white"/>
<path d="M398.182 336.726H409.15C411.065 336.726 413.074 338.276 413.628 340.196L416.823 351.159C417.383 353.079 416.281 354.629 414.367 354.629H403.397C401.483 354.629 399.477 353.079 398.918 351.159L395.723 340.196C395.165 338.276 396.266 336.726 398.182 336.726Z" fill="white"/>
<path d="M375.287 336.726H386.256C388.171 336.726 390.177 338.276 390.735 340.196L393.93 351.159C394.489 353.079 393.388 354.629 391.472 354.629H380.503C378.587 354.629 376.582 353.079 376.024 351.159L372.829 340.196C372.27 338.276 373.371 336.726 375.287 336.726Z" fill="white"/>
<path d="M405.485 361.799H416.455C418.369 361.799 420.378 363.349 420.932 365.263L424.128 376.232C424.687 378.152 423.585 379.702 421.671 379.702H410.701C408.787 379.702 406.778 378.152 406.224 376.232L403.028 365.263C402.469 363.349 403.571 361.799 405.485 361.799Z" fill="white"/>
<path d="M382.592 361.799H393.56C395.476 361.799 397.482 363.349 398.04 365.263L401.237 376.232C401.791 378.152 400.694 379.702 398.777 379.702H387.808C385.892 379.702 383.887 378.152 383.329 376.232L380.134 365.263C379.575 363.349 380.676 361.799 382.592 361.799Z" fill="white"/>
<path d="M439.53 378.459H565.971L532.265 262.743H405.821L439.53 378.459ZM567.624 380.941H438.6C438.047 380.941 437.559 380.575 437.408 380.046L402.978 261.853C402.866 261.481 402.945 261.072 403.174 260.759C403.409 260.453 403.779 260.266 404.17 260.266H533.196C533.749 260.266 534.23 260.633 534.387 261.162L568.815 379.354C568.923 379.727 568.851 380.13 568.622 380.442C568.388 380.755 568.015 380.941 567.624 380.941Z" fill="black"/>
<path d="M544.876 349.439C544.613 349.439 544.345 349.353 544.122 349.176L515.541 327.014C513.34 325.305 510.653 324.539 508.178 324.899C506.217 325.191 504.542 326.191 503.462 327.711L496.122 338.035C495.156 339.395 493.676 340.287 491.955 340.544C489.938 340.842 487.771 340.236 486.016 338.875L453.199 313.427C450.999 311.717 448.318 310.946 445.837 311.312C443.882 311.603 442.201 312.603 441.121 314.124L439.166 316.868C438.772 317.428 438 317.559 437.44 317.159C436.885 316.765 436.748 315.987 437.148 315.433L439.097 312.689C440.578 310.608 442.841 309.248 445.477 308.859C448.615 308.396 451.982 309.345 454.714 311.466L487.531 336.915C488.76 337.863 490.235 338.286 491.589 338.086C492.333 337.978 493.373 337.629 494.105 336.6L501.433 326.277C502.913 324.196 505.177 322.841 507.818 322.447C510.956 321.984 514.323 322.933 517.055 325.053L545.636 347.215C546.18 347.638 546.282 348.416 545.859 348.959C545.614 349.273 545.248 349.439 544.876 349.439Z" fill="black"/>
<path d="M500.128 280.325C496.757 280.325 493.953 281.588 492.229 283.879C490.393 286.329 489.962 289.67 491.013 293.283C493.209 300.816 501.096 306.939 508.606 306.939C511.977 306.939 514.787 305.675 516.505 303.385C518.347 300.935 518.778 297.593 517.727 293.98C515.531 286.453 507.643 280.325 500.128 280.325ZM508.606 309.418C500.075 309.418 491.107 302.493 488.628 293.98C487.352 289.594 487.931 285.485 490.245 282.391C492.447 279.463 495.954 277.845 500.128 277.845C508.665 277.845 517.626 284.77 520.106 293.283C521.381 297.664 520.809 301.779 518.494 304.872C516.286 307.8 512.78 309.418 508.606 309.418Z" fill="black"/>
<path d="M304.524 297.851H459.585C465.326 297.851 471.332 302.504 473.003 308.245L503.382 412.527C505.058 418.273 501.757 422.927 496.017 422.927H340.961C335.219 422.927 329.209 418.273 327.537 412.527L297.158 308.245C295.485 302.504 298.783 297.851 304.524 297.851Z" fill="white"/>
<path d="M304.525 299.088C302.227 299.088 300.323 299.944 299.162 301.49C297.917 303.151 297.628 305.426 298.349 307.898L328.727 412.184C330.254 417.429 335.741 421.683 340.96 421.683H496.017C498.321 421.683 500.219 420.832 501.377 419.287C502.627 417.625 502.917 415.35 502.199 412.879L471.821 308.592C470.293 303.354 464.799 299.088 459.584 299.088H304.525ZM496.017 424.166H340.96C334.716 424.166 328.161 419.107 326.347 412.879L295.968 308.592C295.024 305.351 295.454 302.3 297.179 300.002C298.819 297.814 301.429 296.61 304.525 296.61H459.584C465.83 296.61 472.382 301.675 474.2 307.898L504.572 412.184C505.522 415.42 505.087 418.476 503.368 420.774C501.724 422.962 499.119 424.166 496.017 424.166Z" fill="black"/>
<path d="M474.163 416.767C473.629 416.767 473.135 416.417 472.974 415.871L440.848 305.591C440.658 304.937 441.037 304.247 441.692 304.058C442.347 303.862 443.036 304.242 443.226 304.896L475.358 415.182C475.547 415.843 475.168 416.52 474.514 416.722C474.393 416.75 474.278 416.767 474.163 416.767Z" fill="black"/>
<path d="M343.417 404.598H458.776C460.635 404.598 461.701 403.09 461.163 401.231L437.36 319.536C436.822 317.676 434.878 316.169 433.018 316.169H317.657C315.798 316.169 314.73 317.676 315.272 319.536L339.071 401.231C339.612 403.09 341.558 404.598 343.417 404.598Z" fill="black"/>
<path d="M466.448 360.036C467.623 364.076 471.849 367.362 475.867 367.362C477.596 367.362 479.029 366.724 479.896 365.571C480.831 364.323 481.044 362.604 480.495 360.73C479.32 356.694 475.095 353.409 471.076 353.409C469.347 353.409 467.914 354.047 467.047 355.2C466.112 356.448 465.899 358.166 466.448 360.036ZM475.867 369.841C470.735 369.841 465.552 365.839 464.064 360.73C463.308 358.127 463.672 355.57 465.066 353.712C466.414 351.921 468.547 350.93 471.076 350.93C476.208 350.93 481.391 354.932 482.874 360.036C483.635 362.644 483.271 365.201 481.878 367.054C480.529 368.85 478.397 369.841 475.867 369.841Z" fill="black"/>
<path d="M468.51 325.249C467.975 325.249 467.48 324.901 467.32 324.36L465.065 316.604C464.723 315.425 463.408 314.395 462.252 314.395H456.198C455.509 314.395 454.957 313.842 454.957 313.159C454.957 312.47 455.509 311.918 456.198 311.918H462.252C464.513 311.918 466.796 313.671 467.445 315.909L469.706 323.666C469.894 324.32 469.512 325.009 468.858 325.203C468.744 325.237 468.624 325.249 468.51 325.249Z" fill="black"/>
<path d="M471.24 345.25H465.189C462.932 345.25 460.646 343.494 459.999 341.253L455.074 324.355C454.882 323.702 455.254 323.01 455.918 322.819C456.571 322.627 457.258 323.01 457.449 323.663L462.374 340.561C462.718 341.738 464.029 342.768 465.189 342.768H471.24C471.527 342.768 471.915 342.706 472.141 342.402C472.349 342.132 472.383 341.726 472.248 341.253C472.056 340.601 472.433 339.908 473.092 339.717C473.745 339.525 474.437 339.908 474.629 340.561C474.983 341.783 474.797 342.993 474.128 343.888C473.48 344.755 472.428 345.25 471.24 345.25Z" fill="black"/>
<path d="M465.409 325.25H459.354C458.673 325.25 458.121 324.698 458.121 324.011C458.121 323.33 458.673 322.773 459.354 322.773H465.409C466.102 322.773 466.653 323.33 466.653 324.011C466.653 324.698 466.102 325.25 465.409 325.25Z" fill="black"/>
<path d="M467.113 331.084H461.057C460.374 331.084 459.82 330.53 459.82 329.848C459.82 329.159 460.374 328.605 461.057 328.605H467.113C467.795 328.605 468.349 329.159 468.349 329.848C468.349 330.53 467.795 331.084 467.113 331.084Z" fill="black"/>
<path d="M489.768 408.855H483.712C481.451 408.855 479.173 407.097 478.519 404.859L477.164 400.213C476.974 399.553 477.355 398.87 478.009 398.674C478.664 398.484 479.353 398.865 479.548 399.519L480.897 404.165C481.244 405.34 482.559 406.375 483.712 406.375H489.768C490.451 406.375 491.005 406.929 491.005 407.612C491.005 408.295 490.451 408.855 489.768 408.855Z" fill="black"/>
<path d="M490.273 399.939C489.735 399.939 489.237 399.587 489.081 399.044L483.59 380.206C483.249 379.03 481.934 378.001 480.781 378.001H474.725C474.44 378.001 474.048 378.062 473.824 378.364C473.617 378.639 473.584 379.042 473.718 379.512L474.787 383.183C474.977 383.838 474.602 384.526 473.942 384.716C473.281 384.912 472.599 384.532 472.408 383.877L471.339 380.206C470.981 378.986 471.166 377.777 471.838 376.881C472.487 376.014 473.539 375.521 474.725 375.521H480.781C483.036 375.521 485.32 377.273 485.975 379.512L491.459 398.35C491.655 399.01 491.274 399.698 490.62 399.889C490.502 399.922 490.385 399.939 490.273 399.939Z" fill="black"/>
<path d="M482.41 383.603H474.278C473.595 383.603 473.041 383.043 473.041 382.36C473.041 381.678 473.595 381.124 474.278 381.124H482.41C483.098 381.124 483.652 381.678 483.652 382.36C483.652 383.043 483.098 383.603 482.41 383.603Z" fill="black"/>
<path d="M484.618 391.186H476.487C475.804 391.186 475.244 390.632 475.244 389.949C475.244 389.261 475.804 388.707 476.487 388.707H484.618C485.307 388.707 485.861 389.261 485.861 389.949C485.861 390.632 485.307 391.186 484.618 391.186Z" fill="black"/>
<path d="M517.257 222.655H576.184C579.686 222.655 583.356 225.495 584.374 229.003L595.198 266.157C596.222 269.665 594.212 272.505 590.697 272.505H531.777C528.268 272.505 524.604 269.665 523.581 266.157L512.756 229.003C511.739 225.495 513.749 222.655 517.257 222.655Z" fill="white"/>
<path d="M517.25 223.904C516 223.904 514.975 224.354 514.363 225.173C513.694 226.06 513.544 227.304 513.944 228.66L524.769 265.822C525.625 268.778 528.837 271.272 531.775 271.272H590.692C591.942 271.272 592.967 270.822 593.579 270.003C594.254 269.115 594.398 267.872 594.004 266.516L583.18 229.354C582.317 226.398 579.111 223.904 576.174 223.904H517.25ZM590.692 273.753H531.775C527.688 273.753 523.569 270.572 522.388 266.516L511.557 229.354C510.951 227.26 511.244 225.192 512.376 223.686C513.469 222.229 515.2 221.423 517.25 221.423H576.174C580.255 221.423 584.373 224.604 585.561 228.66L596.385 265.822C596.998 267.916 596.698 269.984 595.567 271.49C594.473 272.947 592.742 273.753 590.692 273.753Z" fill="black"/>
<path d="M592.51 238.515C591.972 238.515 591.478 238.163 591.317 237.625L590.415 234.529C590.223 233.874 590.606 233.182 591.261 232.99C591.923 232.799 592.602 233.176 592.8 233.837L593.702 236.933C593.894 237.588 593.511 238.274 592.856 238.466C592.738 238.503 592.621 238.515 592.51 238.515Z" fill="black"/>
<path d="M519.52 233.833C518.986 233.833 518.495 233.481 518.338 232.94L515.623 223.626C515.014 221.533 515.309 219.465 516.44 217.957C517.528 216.499 519.262 215.694 521.311 215.694H580.233C584.312 215.694 588.441 218.874 589.622 222.934L591.552 229.571C591.747 230.231 591.363 230.916 590.71 231.105C590.05 231.3 589.365 230.923 589.17 230.263L587.24 223.626C586.379 220.672 583.168 218.177 580.233 218.177H521.311C520.06 218.177 519.036 218.623 518.42 219.446C517.754 220.332 517.603 221.571 517.999 222.934L520.714 232.249C520.903 232.902 520.532 233.594 519.872 233.782C519.759 233.82 519.639 233.833 519.52 233.833Z" fill="black"/>
<path d="M523.897 248.819C523.362 248.819 522.863 248.469 522.71 247.927L520.163 239.18C519.972 238.522 520.347 237.833 521.006 237.642C521.658 237.451 522.347 237.833 522.537 238.485L525.084 247.232C525.281 247.89 524.9 248.579 524.247 248.77C524.131 248.807 524.014 248.819 523.897 248.819Z" fill="black"/>
<path d="M446.753 388.97C446.434 388.97 446.12 388.847 445.874 388.606L390.125 332.853C389.641 332.372 389.641 331.588 390.125 331.101C390.609 330.62 391.394 330.62 391.878 331.101L447.631 386.854C448.113 387.336 448.113 388.119 447.631 388.606C447.385 388.847 447.072 388.97 446.753 388.97Z" fill="white"/>
<path d="M405.484 363.035C405.165 363.035 404.851 362.912 404.605 362.672L372.347 330.413C371.863 329.926 371.863 329.143 372.347 328.661C372.832 328.174 373.616 328.174 374.1 328.661L406.362 360.92C406.844 361.401 406.844 362.19 406.362 362.672C406.116 362.912 405.803 363.035 405.484 363.035Z" fill="white"/>
<path d="M636.831 293.178C636.309 293.178 635.825 292.849 635.651 292.327C630.029 275.423 611.708 261.669 594.829 261.669H574.173C556.306 261.669 536.936 247.151 530.997 229.309C530.786 228.663 531.134 227.961 531.786 227.743C532.432 227.526 533.14 227.88 533.352 228.526C538.98 245.436 557.294 259.19 574.173 259.19H594.829C612.696 259.19 632.073 273.702 638.005 291.544C638.223 292.197 637.875 292.899 637.223 293.116C637.092 293.16 636.962 293.178 636.831 293.178Z" fill="black"/>
<path d="M530.473 230.531C532.437 232.009 534.832 232.009 535.811 230.531C536.796 229.06 536.004 226.671 534.04 225.194C532.075 223.722 529.681 223.722 528.696 225.194C527.71 226.671 528.509 229.06 530.473 230.531Z" fill="white"/>
<path d="M531.009 225.329C530.871 225.329 530.74 225.342 530.616 225.36C530.216 225.429 529.91 225.61 529.729 225.885C529.192 226.684 529.679 228.388 531.215 229.543C532.095 230.198 533.1 230.51 533.893 230.373C534.292 230.298 534.598 230.123 534.779 229.849C535.31 229.043 534.835 227.345 533.293 226.191C532.551 225.635 531.733 225.329 531.009 225.329ZM533.506 232.882C532.238 232.882 530.903 232.408 529.729 231.528C527.207 229.636 526.302 226.553 527.669 224.511C528.225 223.669 529.13 223.101 530.197 222.92C531.677 222.664 533.35 223.132 534.779 224.206C537.301 226.097 538.206 229.181 536.839 231.222C536.277 232.064 535.378 232.633 534.311 232.814C534.049 232.857 533.774 232.882 533.506 232.882Z" fill="black"/>
<path d="M635.226 294.474C637.19 295.947 639.58 295.947 640.561 294.474C641.543 292.996 640.748 290.612 638.785 289.134C636.822 287.661 634.432 287.661 633.444 289.134C632.462 290.612 633.257 292.996 635.226 294.474Z" fill="white"/>
<path d="M635.757 289.27C635.622 289.27 635.493 289.282 635.365 289.3C634.961 289.37 634.663 289.545 634.475 289.826C633.943 290.628 634.423 292.324 635.967 293.482C636.839 294.137 637.845 294.448 638.641 294.307C639.044 294.243 639.343 294.061 639.524 293.786C640.062 292.985 639.582 291.289 638.038 290.124C637.307 289.575 636.476 289.27 635.757 289.27ZM638.249 296.823C636.991 296.823 635.651 296.349 634.475 295.465C631.96 293.576 631.053 290.493 632.41 288.446C632.978 287.603 633.873 287.042 634.949 286.854C636.423 286.603 638.097 287.071 639.524 288.141C642.051 290.037 642.958 293.12 641.589 295.161C641.033 296.004 640.132 296.571 639.056 296.752C638.793 296.799 638.524 296.823 638.249 296.823Z" fill="black"/>
<path d="M576.486 258.601L580.776 252.309C581.528 251.211 583.282 251.162 584.689 252.206L592.741 258.146C594.154 259.189 594.688 260.925 593.942 262.023L589.652 268.315C588.9 269.413 587.147 269.461 585.739 268.424L577.682 262.478C576.274 261.434 575.734 259.699 576.486 258.601Z" fill="white"/>
<path d="M577.515 259.294C577.187 259.768 577.509 260.8 578.42 261.475L586.481 267.421C587.003 267.81 587.616 267.992 588.108 267.907C588.351 267.871 588.527 267.767 588.637 267.609L592.919 261.323C593.247 260.849 592.925 259.816 592.014 259.142L583.954 253.196C583.431 252.807 582.824 252.625 582.326 252.71C582.089 252.752 581.913 252.849 581.803 253.007L577.515 259.294ZM587.865 270.41C586.894 270.41 585.879 270.063 585.005 269.413L576.95 263.473C574.976 262.015 574.326 259.567 575.468 257.897L579.757 251.61C580.242 250.9 581.008 250.42 581.913 250.268C583.073 250.067 584.361 250.408 585.43 251.203L593.484 257.15C595.458 258.602 596.114 261.049 594.972 262.72L590.684 269.006C590.198 269.723 589.426 270.197 588.521 270.355C588.309 270.391 588.084 270.41 587.865 270.41Z" fill="black"/>
<path d="M590.902 299.486C589.627 295.654 591.696 292.551 595.521 292.551C599.352 292.551 603.49 295.654 604.766 299.486C606.041 303.311 603.972 306.415 600.14 306.415C596.315 306.415 592.177 303.311 590.902 299.486ZM595.653 319.478H613.331C614.167 319.478 614.756 318.985 614.84 318.221L618.888 304.845C618.948 304.279 618.726 303.63 618.269 303.07L587.04 261.34C585.741 259.746 583.468 259.746 583.233 261.34L579.787 303.07C579.702 303.63 579.901 304.279 580.346 304.845L593.302 318.221C593.897 318.985 594.811 319.478 595.653 319.478Z" fill="white"/>
<path d="M592.073 299.101C593.175 302.395 596.86 305.183 600.136 305.183C601.514 305.183 602.622 304.689 603.273 303.792C603.983 302.804 604.092 301.413 603.586 299.884C602.49 296.584 598.793 293.796 595.517 293.796C594.15 293.796 593.036 294.29 592.392 295.187C591.675 296.174 591.561 297.565 592.073 299.101ZM600.136 307.663C595.752 307.663 591.17 304.243 589.724 299.884C588.966 297.608 589.207 295.368 590.381 293.736C591.501 292.176 593.331 291.321 595.517 291.321C599.907 291.321 604.483 294.735 605.94 299.101C606.693 301.377 606.458 303.617 605.278 305.243C604.158 306.802 602.333 307.663 600.136 307.663ZM581.282 304.044L594.186 317.37C594.222 317.4 594.247 317.436 594.277 317.472C594.632 317.93 595.198 318.249 595.65 318.249H613.329C613.594 318.249 613.6 318.165 613.606 318.093C613.618 318.02 613.63 317.942 613.654 317.87L617.658 304.635C617.646 304.454 617.556 304.165 617.309 303.858L586.039 262.087C585.552 261.491 584.877 261.328 584.558 261.412C584.474 261.437 584.468 261.443 584.456 261.533L581.011 303.177C580.987 303.412 581.041 303.713 581.282 304.044ZM613.329 320.724H595.65C594.445 320.724 593.199 320.086 592.362 319.05L579.452 305.712C579.416 305.682 579.392 305.646 579.361 305.61C578.711 304.773 578.422 303.786 578.549 302.894L581.993 261.244C582.161 260.106 582.872 259.305 583.902 259.022C585.281 258.643 586.93 259.263 587.99 260.563L619.26 302.334C619.892 303.105 620.217 304.087 620.115 304.984C620.109 305.062 620.097 305.134 620.073 305.213L616.056 318.496C615.846 319.815 614.744 320.724 613.329 320.724Z" fill="black"/>
<path d="M602.303 334.078H616.385C618.962 334.078 620.357 331.985 619.502 329.403L618.956 327.777C618.095 325.195 615.31 323.102 612.728 323.102H598.652C596.075 323.102 594.674 325.195 595.535 327.777L596.081 329.403C596.936 331.985 599.721 334.078 602.303 334.078Z" fill="black"/>
<path d="M593.653 288.2C593.142 288.2 592.662 287.876 592.488 287.359C583.939 262.228 583.939 262.228 584.425 261.544L585.434 262.264L586.652 262.06C586.881 263.05 591.672 277.255 594.829 286.561C595.058 287.209 594.703 287.912 594.061 288.134C593.923 288.176 593.791 288.2 593.653 288.2Z" fill="black"/>
</svg>
